<?xml version="1.0" encoding="utf-8"?>
<!-- Generator: Adobe Illustrator 18.0.0, SVG Export Plug-In . SVG Version: 6.00 Build 0)  -->
<!DOCTYPE svg PUBLIC "-//W3C//DTD SVG 1.1//EN" "http://www.w3.org/Graphics/SVG/1.1/DTD/svg11.dtd">
<svg version="1.1" id="Livello_1" xmlns="http://www.w3.org/2000/svg" xmlns:xlink="http://www.w3.org/1999/xlink" x="0px" y="0px"
	 viewBox="0 0 283.5 283.5" enable-background="new 0 0 283.5 283.5" xml:space="preserve">
<rect x="0" fill="#35495E" width="283.5" height="283.5"/>
<g>
	<path fill="#FFFFFF" d="M120.8,86.7l-0.2,0.7l-0.1,0.1v0.1v0.3c0.1,0.2,0,0.5-0.1,0.8c0,0.3,0,0.5-0.1,0.7
		c-0.1,0.4-0.3,0.7-0.3,0.9c-0.1,0.3-0.2,0.5-0.3,0.8c-0.3,0.6-0.5,1.2-0.8,1.7c-0.2,0.6-0.4,1.1-0.7,1.6c-0.5,0.7-0.9,1.4-1.3,2
		c-0.4,0.6-0.8,1.2-1.3,1.7c-0.4,0.6-0.9,1.1-1.5,1.7c-0.6,0.5-1.2,1-1.7,1.4c-0.7,0.5-1.4,0.9-2.1,1.3c-0.7,0.4-1.4,0.6-2.2,0.8
		c-0.8,0.2-1.6,0.4-2.3,0.6c-0.7,0.2-1.4,0.3-2.2,0.4h-2.4c-0.4,0-0.7,0-1.1-0.1c-0.4,0-0.7-0.1-1.1-0.1c-1.4-0.2-2.9-0.5-4.2-0.9
		l-0.2,0.2l-0.1,0.1l0.2,0.1l-2,6.4c0.2-0.4,0.4-0.9,0.5-1.3c0.1-0.4,0.3-0.8,0.5-1.1c0-0.1,0-0.1,0.1-0.1c-0.1,0.1-0.1,0.1-0.1,0.2
		c0,0.1,0,0.2-0.1,0.3c0,0.1-0.1,0.2-0.1,0.4c0,0.2,0,0.4-0.1,0.7c-0.1,0.2-0.1,0.4-0.1,0.5c-0.2,1-0.5,2-0.8,2.9
		c-0.3,0.9-0.5,1.9-0.8,2.8l-0.7,2c0.8,0,1.6,0,2.3-0.1c0.8,0,1.6-0.1,2.7-0.1l0.2,0.1h0.2c0.4,0,0.7,0,1.1,0.1
		c0.4,0,0.7,0.1,1.1,0.1c0.1,0.1,0.3,0.1,0.4,0.1c0.1,0,0.4,0,0.7,0.1c0.1,0.1,0.3,0.1,0.5,0.1c0.2,0,0.4,0,0.6,0.1
		c0.2,0.1,0.4,0.2,0.7,0.3c0.2,0,0.4,0.1,0.5,0.3c0.2,0.1,0.3,0.3,0.3,0.3l0.1,0.1h0.2c0.1,0.1,0.2,0.3,0.2,0.4c0.1,0,0.1,0,0.1,0.1
		c0.1,0.1,0.1,0.1,0.2,0.1v0.3v0.1v0.2l-0.1,0.1c0,0.1,0,0.1,0.1,0.2v0.1v0.2v0.3v0.1l-0.2,0.1l-0.2,0.7c-0.1,0.1,0,0.4,0.1,0.7
		c-0.3,0.4-0.6,0.9-0.8,1.3c-0.3,0.4-0.5,0.9-0.7,1.4c-0.3,0.4-0.6,0.8-0.8,1.2c-0.3,0.4-0.6,0.9-1,1.3c-0.4,0.4-0.8,0.8-1.2,1.1
		c-0.4,0.3-0.9,0.7-1.4,1c-0.9,0.6-1.9,1-2.8,1.3c-0.6,0.1-1.1,0.3-1.6,0.4c-0.5,0.1-1.1,0.2-1.8,0.3h-0.2h-0.1H90
		c-0.1,0-0.1,0-0.1,0.1c0,0-0.1,0.1-0.2,0.1h-0.4c-0.3-0.1-0.7-0.1-1.1-0.1h-0.7c-0.1,0-0.2,0-0.2-0.1c0,0,0-0.1-0.1-0.1
		c-0.1,0.1-0.1,0.3-0.1,0.4c0,0.1,0,0.3,0,0.3c-0.7,2.2-1.2,4.4-1.8,6.6c-0.5,2.2-1.1,4.4-1.7,6.5l-0.4,2l-0.4,1.8
		c-0.1,0.7-0.3,1.3-0.6,2c-0.3,0.7-0.5,1.3-0.6,1.8c-0.3,1.2-0.7,2.5-1.1,4l-0.4,0.8l-0.3,1c0,0.3-0.1,0.5-0.3,0.8l-0.1,0.2
		c-0.1,0.1-0.2,0.3-0.2,0.5c0,0.2,0,0.3-0.1,0.5c0,0.1,0,0.1-0.1,0.2c-0.1,0-0.1,0.1-0.1,0.2c-0.1,0.1-0.1,0.3-0.1,0.5l-0.4,1
		l-0.7,0.9l-0.3,0.7c-0.1,0.1-0.1,0.2-0.1,0.3c-0.4,0.7-0.7,1.2-1,1.8c-0.3,0.5-0.7,1.1-1.2,1.7v0.1l-0.2,0.1l-0.4,0.5
		c0,0.1,0,0.2-0.1,0.3c-0.1,0-0.1,0.1-0.2,0.3c0,0.1,0,0.1-0.1,0.2c-0.1,0-0.1,0.1,0,0.2l-0.5,0.3l-0.1,0.1c-1,1.3-2.1,2.5-3.4,3.5
		c-1,0.9-2.2,1.6-3.5,2.3c-1.3,0.7-2.7,0.9-4.2,0.7h-0.2l-0.2,0.1l-0.4-0.3c-0.1,0-0.2,0-0.3-0.1c0,0-0.1-0.1-0.2-0.1
		c-0.7-0.1-1.2-0.2-1.7-0.4c-0.2-0.1-0.4-0.2-0.5-0.3c0.2,0.4,0.6,0.5,1.1,0.5v0.1c0.1,0,0.1,0,0.1,0.1h-0.1h-0.3l-0.2-0.1h-0.3
		h-0.1c-0.7-0.3-1.3-0.6-1.7-1c-0.2-0.2-0.5-0.5-0.7-0.7c-0.3-0.3-0.5-0.5-0.6-0.7c-0.3-0.3-0.6-0.7-1-1.2c-0.4-0.5-0.7-1.2-1.1-1.9
		c-0.1-0.4-0.3-0.7-0.4-1.1c-0.1-0.4-0.3-0.8-0.6-1.1c-0.1-0.6-0.3-1.3-0.5-2.3c-0.1-1.2-0.2-2.4-0.2-3.6c0-1.2,0.1-2.5,0.2-3.9
		c0.4-2.2,0.9-4.5,1.6-6.8c0.2-1.2,0.5-2.3,0.8-3.4c0.3-1.1,0.8-2.3,1.4-3.4c0.4-0.9,0.7-1.9,1.1-3c0.4-1,0.9-2.1,1.5-3.1
		c1.2-2,2.5-3.9,3.8-5.8c1.3-1.8,2.6-3.5,4-5.1c1.2-1.2,2.4-2.3,3.4-3.3c1-1,2.2-2,3.3-3l0.3-0.4c0.1-0.4,0.1-0.9,0.2-1.4
		c0-0.5,0.1-1,0.3-1.5c0.3-1.2,0.6-2.4,0.8-3.6c0.3-1.2,0.5-2.3,0.8-3.4c-0.1-0.1,0-0.4,0.1-0.8c-0.1-0.3-0.1-0.6,0.1-0.8
		c0.1-0.3,0.2-0.6,0.4-1l0.5-1.6c0-0.1,0-0.3-0.1-0.3v-0.2l0.3-1.5c0-0.1,0-0.1,0.1-0.2c0-0.1,0.1-0.1,0.1-0.2l0.5-1.7
		c0-0.4,0-0.6,0.1-0.8l0.2-0.4c0-0.1,0-0.1,0.1-0.2c0,0,0.1-0.1,0.1-0.2c0.1-0.1,0.1-0.3,0.2-0.4c0.1-0.1,0.1-0.2,0.1-0.4l0.3-1.1
		v-0.3c0-0.2,0.1-0.4,0.4-0.7c-0.1-0.1-0.1-0.3-0.1-0.3c0-0.1,0.1-0.1,0.1-0.2c-0.3,0-0.5,0-0.5,0.1h-0.1c-0.2,0.1-0.4,0.1-0.6,0.1
		c-0.2,0-0.3,0-0.5,0.1c-0.1,0.1-0.3,0.3-0.5,0.3c-0.2,0.1-0.5,0.2-0.8,0.3c-0.4,0.1-0.7,0.3-1,0.5c-0.3,0.2-0.5,0.3-0.8,0.5
		c0,0.1,0,0.1-0.1,0v-0.1l0.1-0.1c0-0.1,0.1-0.2,0.2-0.3h0.2l0.2-0.2h-0.2l0.2-0.1c0.1-0.1,0.4-0.3,0.7-0.4c0.3-0.1,0.5-0.2,0.7-0.4
		h0.1c0-0.1,0-0.1,0.1-0.1H76c0-0.1-0.4,0.1-1.1,0.5h-0.1c-0.3,0.1-0.5,0.3-0.5,0.3L74,98.9c0.6-0.4,1.2-0.7,1.8-0.9
		c0.6-0.3,1.2-0.5,1.8-0.6c0.1-0.1,0.3-0.1,0.5-0.2c0.2,0,0.4-0.1,0.5-0.2c-0.1,0-0.1,0-0.2,0.1c0,0-0.1,0.1-0.2,0.1
		c-0.6,0.1-1.2,0.3-1.7,0.5c-0.6,0.2-1.1,0.5-1.5,0.8c-0.1,0-0.3,0.1-0.5,0.2l-0.4,0.1c-0.1,0-0.1,0-0.1,0.1v0.2h-0.1V99
		c-0.1,0-0.1,0-0.1,0.1c-0.1,0-0.1,0-0.2,0.1l-0.2,0.2v-0.1l-0.3,0.3c-0.1,0.1-0.3,0.3-0.4,0.4c-0.1,0.1-0.3,0.3-0.3,0.4h-0.1
		c-0.1,0,0-0.1,0.2-0.3c0.1-0.1,0.1-0.2,0.2-0.3l0.3-0.3l0.1-0.1l-0.2,0.1h-0.2l0.1-0.1c-0.2,0.1-0.4,0.3-0.4,0.5
		c-0.3,0.3-0.4,0.5-0.4,0.5c-0.2,0.1-0.5,0.4-0.8,0.7l-0.4,0.9v0.1l0.1,0.1v0.1v0.1v0.1v0.2c-0.2,0.2-0.3,0.5-0.3,0.8v0.4v0.1
		c-0.1,0-0.1,0-0.1,0.1l0.1,0.1l-0.1,0.2l-0.1,0.1h-0.1l-0.3,0.1h-0.1h-0.1v-0.1c-0.1-0.1-0.1-0.2-0.2-0.3c-0.1-0.1-0.3-0.3-0.3-0.4
		c-0.1-0.1-0.2-0.3-0.3-0.4c0-0.4,0-0.7-0.1-1c-0.1-0.3-0.1-0.7,0-1.1c0,0.5,0.1,1,0.3,1.4c0,0.1,0,0.1-0.1,0.2
		c0,0.1-0.1,0.2-0.1,0.3l0.2,0.4v-0.3c-0.3-0.7-0.4-1.6-0.2-2.8c0.1-1.2,0.6-2.2,1.3-3l0.2-0.2c0.2-0.2,0.5-0.4,0.8-0.7v-0.2v-0.1
		c0-0.1,0.2-0.3,0.5-0.5l0.2-0.2c-0.1,0.1-0.2,0.1-0.2,0.2c0,0.1,0,0.1-0.1,0.1h-0.2l-0.4,0.4c-0.1,0.1-0.2,0.3-0.4,0.5
		c-0.2,0.2-0.3,0.3-0.5,0.5h-0.1c0.1-0.1,0.3-0.3,0.5-0.6c0.2-0.3,0.4-0.5,0.5-0.7c0.4-0.4,0.9-0.8,1.4-1.4L72.2,95l-0.3,0.3
		c-0.1,0.1-0.3,0.3-0.5,0.4c-0.2,0.1-0.5,0.4-0.9,0.7h-0.1c0-0.1,0-0.1,0.1-0.1c0,0,0.1,0,0.1-0.1c0.1-0.1,0.3-0.3,0.4-0.3
		c0.1-0.1,0.3-0.2,0.5-0.3c0.1-0.1,0.2-0.3,0.2-0.3c0,0.1-0.1,0.2-0.2,0.3l-0.2-0.1c0.1-0.1,0.3-0.3,0.5-0.5h0.1v-0.1
		c0-0.1,0-0.1,0.1-0.1c0,0,0.1,0,0.1-0.1l-0.1,0.1l0.1-0.2c0.1-0.1,0.3-0.1,0.3-0.2c0-0.1,0.1-0.2,0.4-0.2l-0.2-0.1
		c0.1-0.1,0.3-0.1,0.3-0.2c0.1-0.1,0.1-0.1,0.2-0.1l0.1-0.1c0.2-0.2,0.4-0.4,0.4-0.5c0.2-0.1,0.3-0.2,0.3-0.3l0.1-0.1
		c0.2-0.1,0.3-0.1,0.3-0.2l0.2-0.1c0.1-0.1,0.3-0.3,0.5-0.4l-0.2,0.1h-0.1l0.1-0.1l1-0.7H76c0-0.1,0-0.1,0.1-0.1c0,0,0.1,0,0.1-0.1
		h0.1c0-0.1,0.1-0.1,0.2-0.2c0.4-0.1,0.5-0.3,0.5-0.5c0.2,0,0.4-0.1,0.5-0.2L77.4,90v-0.1c0.4-0.3,0.7-0.5,0.7-0.5
		c0.3-0.1,0.5-0.2,0.7-0.3l0.9-0.3c0.1-0.1,0.1-0.1,0.2-0.2c0.1,0,0.1-0.1,0.2-0.2h0.3c0.2-0.2,0.4-0.3,0.7-0.3
		c0.1-0.1,0.1-0.1,0.1-0.2c0.1-0.2,0.3-0.3,0.5-0.3l0.1-0.1c0.1,0,0.3,0,0.4-0.1c0.1,0,0.1,0,0.2-0.1c0.1,0,0.1-0.1,0.2-0.1
		c0.3-0.1,0.5-0.2,0.5-0.2h0.1v-0.1l0.2-0.1l0.9-0.1c0.1,0,0.1,0,0.1-0.1c0,0,0-0.1,0.1-0.1h0.1c0.1,0,0.1,0,0.2-0.1
		c0,0,0.1-0.1,0.3-0.1l0.8-0.3l1.6-0.7l1.1-0.2c0.6-0.1,1.1-0.2,1.6-0.3c0.5,0,1-0.1,1.6-0.2H92h0.1c0.1,0,0.3,0,0.5,0
		c0.2,0,0.5,0,0.8-0.1h0.1h-0.8c-0.1,0-0.1,0,0-0.1c0.1,0,0.3-0.1,0.5-0.1h0.3c0.1,0,0.1,0,0.2-0.1c0.1,0,0-0.1-0.3-0.1h0.7
		c-0.3,0-0.6,0-0.9,0c-0.3,0-0.8,0-1.4,0.1c0.2-0.1,0.6-0.1,1-0.1c0.5,0,0.9,0,1.4,0c0.1,0,0.2,0,0.3-0.1h-2.3c0.1,0,0.5,0,0.9,0
		c0.5,0,0.9,0,1.1-0.1h-0.2h0.2H94h-0.8c0.2,0,0.5,0,0.8,0s0.6-0.1,0.9-0.2h-0.7c0.2-0.1,0.5-0.1,0.9-0.1h1.2c0.1,0,0.2,0,0.4-0.1
		c0.2,0,0.5-0.1,0.8-0.1c-0.3,0-0.6,0-0.9,0c-0.3,0,0,0,0.8-0.1c0,0.1-0.1,0.1-0.3,0.1c-0.2,0-0.3,0-0.2,0h0.8l0.2-0.1h0.9l0.8-0.1
		h-0.8h2.4c0.1-0.1,0.1-0.1-0.2-0.1c-0.3,0-0.4,0-0.2-0.1h1.3c0.1-0.1,0.2-0.1,0.4-0.1c0.2,0,0.4,0,0.6-0.1h0.7c0.7,0,1.4,0,2-0.1
		c0.6,0,1.2-0.1,1.8-0.1c0.7,0,1.4,0,2,0c0.6,0,1.3,0,2.1,0.1h0.8c0.5,0.1,1,0.1,1.4,0.2c0.4,0,0.9,0.1,1.5,0.2
		c0.3,0.1,0.8,0.2,1.5,0.3c0.5,0.2,1,0.4,1.6,0.4c0.1,0.1,0.3,0.1,0.5,0.2c0.2,0,0.3,0.1,0.5,0.2c0.1,0.1,0.4,0.3,0.7,0.5
		C120.4,85.7,120.7,86.1,120.8,86.7z M70.4,134.4c0.1-0.2,0.1-0.5,0.1-0.7c0-0.3,0-0.5,0.1-0.7c0,0.1,0,0.1-0.1,0.1
		c0,0-0.1,0-0.1,0.1c-0.6,0.5-1.1,1-1.7,1.5c-0.5,0.5-1,1.1-1.5,1.8c-1.1,1.4-2.1,3.2-3,5.2l-0.2,0.7l-0.1,0.8
		c-0.4,0.5-0.7,0.8-0.9,1c-0.1,0.5-0.3,0.9-0.4,1.3c-0.1,0.4-0.2,0.7-0.3,1c-0.7,2-1.2,3.5-1.4,4.8l-0.5,2v0.1
		c-0.2,0.4-0.3,0.6-0.2,0.8c-0.1,0.4-0.2,0.7-0.3,0.9c0,0.3-0.1,0.4-0.3,0.5l0.1,0.1l-0.1-0.1c0.1-0.1,0.1-0.2,0.2-0.3l-0.2,0.2
		c-0.1,0.1-0.1,0.3-0.1,0.4c0,0.1-0.1,0.3-0.2,0.6v0.1c0.1,0.1,0.1,0.2,0.1,0.4h-0.1c0,0.4,0,0.6-0.1,0.7l-0.1,0.2l-0.1,0.1
		c-0.1,0-0.1,0-0.1-0.1v0.1l-0.1,0.1c0,0.4,0,0.8-0.1,1.1c0,0.3-0.1,0.7-0.2,1c-0.1,0.5-0.1,1-0.1,1.6c0,0.5,0,1.1,0.1,1.7
		c0,0.7,0.1,1.3,0.3,1.8l0.7,0.1c0-0.1,0-0.3,0.1-0.3c0-0.1,0-0.2-0.2-0.3c-0.1-0.3-0.2-0.6-0.2-1c0-0.4,0.1-0.7,0.1-1.1
		c-0.1-0.1-0.2-0.3-0.1-0.6c0.1-0.3,0.1-0.5,0.1-0.7c0-0.1,0-0.3,0.1-0.3c0-0.1,0.1-0.2,0.1-0.3c0-0.1,0-0.1,0.1-0.2
		c0-0.1,0.1-0.1,0.1-0.2v-0.1v-0.1l0.1-0.1l-0.1,0.7v0.4c-0.1,0.1,0,0.4,0.1,0.8c-0.1,0.3-0.2,0.5-0.2,0.8c0,0.2,0,0.4-0.1,0.7
		c0,0.4,0,0.8,0.1,1.1c0.1,0.3,0.1,0.7,0.2,1h0.1c0.1-0.1,0.2-0.1,0.3-0.2c0.1,0,0.3-0.1,0.4-0.3c0.2-0.2,0.4-0.4,0.5-0.7
		c0.1-0.1,0.3-0.3,0.4-0.5c0.1-0.2,0.3-0.4,0.4-0.6c0.6-0.7,1-1.6,1.2-2.5c0.1-0.4,0.3-0.8,0.5-1.2c0.2-0.4,0.4-0.9,0.5-1.5
		c0.4-0.7,0.7-1.5,1-2.4c0.3-0.9,0.7-1.9,1-2.9c0.1-0.9,0.3-1.9,0.5-2.8c0.2-0.9,0.4-1.9,0.6-2.9c0.5-1.7,1-3.7,1.4-5.8
		C69.3,139.3,69.8,137,70.4,134.4z M71.2,100.7c0.1-0.1,0.3-0.4,0.7-0.8c-0.4,0.4-0.8,0.9-1.1,1.4c-0.3,0.5-0.4,1-0.3,1.5l-0.2,0.4
		h0.1l-0.1,0.1c0,0.7-0.2,1-0.5,1c-0.2,0-0.4-0.2-0.5-0.7l-0.1,0.2c0.1,0.1,0.1,0.1,0.1,0.2c0,0,0,0.1,0.1,0.2l0.1,0.1
		c0.2,0.1,0.4,0.1,0.4,0.1c0,0.1,0,0.2,0.1,0.2H70v-0.2h0.2l-0.1-0.1l0.1-0.1V104v-0.1v-0.1c0.1-0.1,0.1-0.3,0.1-0.4
		c0.1-0.1,0.2-0.3,0.1-0.4l0.1-0.4v-0.1l-0.2-0.2l0.4-0.9c0.1-0.1,0.1-0.3,0.2-0.3C71.1,100.9,71.2,100.8,71.2,100.7z M73,93.9
		c0-0.1,0-0.1,0.1-0.1c0,0,0.1,0,0.1-0.1l-0.2,0.2H73z M78.1,96.2c-0.5,0.1-0.8,0.3-1,0.5c0.7-0.4,1.7-0.7,2.8-0.9
		C79.5,96,79.2,96,79,96C78.7,96.1,78.4,96.1,78.1,96.2z M96.5,117.7c-1-0.1-2-0.1-2.9-0.2c-0.9,0-1.9-0.1-2.9-0.1
		c0.4,0,0.9,0,1.4,0c0.5,0,0.9,0,1.2,0.1h-0.5c-0.3,0-0.6,0-0.9-0.1c-0.3,0-0.7-0.1-1.1-0.1v0.1h1.4h0.7c0.6,0,1.2,0,1.7,0
		C95.1,117.6,95.8,117.6,96.5,117.7c0.6,0.1,1.2,0.1,1.9,0.2c0.7,0.1,1.3,0.2,1.9,0.3c0.4,0.1,0.8,0.2,1,0.2
		c0.1,0.1,0.4,0.3,0.9,0.4l0.1,0.1c0.1,0,0.1,0,0.1,0.1c-0.1,0.1,0,0.1,0.1,0.2c0.3,0.3,0.4,0.6,0.3,0.9l0.1,0.2v0.1v0.2
		c-0.1,0.1-0.1,0.2-0.1,0.3c0,0,0,0.1-0.2,0.2c-0.1,0.7-0.4,1.3-0.7,2c-0.3,0.7-0.6,1.4-0.9,2c-0.4,0.4-0.7,0.7-0.9,1.1
		c-0.2,0.4-0.5,0.8-0.8,1.2c-0.5,0.4-1,0.7-1.4,1c-0.4,0.3-0.8,0.6-1.2,0.9c-1,0.6-1.9,1-2.7,1.2c-0.9,0.3-1.8,0.5-2.8,0.7
		c-0.5,0.1-1,0.1-1.5,0.1c-0.5,0-1,0-1.6,0l-0.5-0.1h-0.4h-0.1c0.6,0.1,1.1,0.1,1.6,0.1c0.5,0,1,0,1.6,0c0.3,0,0.5,0,0.7-0.1h0.5
		l0.7-0.1h0.2c0.1-0.1,0.2-0.1,0.3-0.1l0.5-0.1c0.1-0.1,0.3-0.1,0.3-0.1c0.1,0,0.2,0,0.3-0.1l0.3-0.1c0.1,0,0.2,0,0.3-0.1l0.5-0.1
		c0.4-0.1,0.7-0.3,1-0.5c0.3-0.2,0.6-0.4,1-0.6c0.4-0.3,0.7-0.6,1-0.9c0.3-0.3,0.7-0.6,1-0.9c0.2-0.3,0.5-0.6,0.7-0.9
		c0.3-0.3,0.5-0.7,0.8-1c0.1-0.3,0.3-0.6,0.5-0.9c0.2-0.3,0.3-0.7,0.4-1c0.2-0.4,0.4-0.7,0.5-1.1c0.1-0.4,0.2-0.7,0.4-1.1
		c0.3-0.3,0.4-0.5,0.4-0.5v-0.5l0.1-0.1l-0.1-0.1c-0.1,0-0.1,0-0.1-0.1c0.1-0.2,0.1-0.4,0-0.4c-0.2-0.4-0.4-0.7-0.4-0.8v-0.1
		l-0.2-0.1c-0.3-0.1-0.5-0.1-0.8-0.2c-0.2-0.1-0.4-0.1-0.7-0.2c-0.2-0.1-0.4-0.1-0.6-0.2c-0.2,0-0.4-0.1-0.7-0.2
		C98.2,117.8,97.2,117.7,96.5,117.7z M90.2,114.2c0.1-0.1,0.1-0.3,0.2-0.5c0.1-0.2,0.1-0.4,0.2-0.6c0.3-0.7,0.5-1.5,0.8-2.3
		c0.2-0.8,0.4-1.5,0.5-1.9h0.1c0.1-0.4,0.2-0.6,0.1-0.7c0.1-0.2,0.3-0.6,0.5-1c0.2-0.5,0.4-1,0.5-1.5l0.1-0.1c0.1-0.5,0.3-1,0.4-1.5
		c0.1-0.5,0.2-0.9,0.4-1.2H94c-0.7,1.9-1.4,3.9-2.1,5.9c-0.7,2.1-1.3,4.3-2,6.6C90.2,115,90.2,114.6,90.2,114.2z M92.4,110.2
		c0.2-0.9,0.5-2,1-3.3c0.4-1.2,0.8-2.5,1.2-3.9c-0.1,0.4-0.3,0.9-0.4,1.3c-0.1,0.4-0.3,0.8-0.3,1.2c-0.4,1.1-0.7,2.2-1.1,3.5
		c-0.4,1.2-0.8,2.5-1.3,3.7c0.1-0.2,0.3-0.4,0.3-0.6c0.1-0.2,0.2-0.3,0.3-0.5C92.1,111.1,92.2,110.6,92.4,110.2z M94.5,84
		c-0.1,0.1-0.3,0.2-0.3,0.2H94c0.1,0,0.1,0,0.1-0.1c0-0.1,0-0.1,0.1-0.1H94.5z M94.2,102.6h0.1c-0.1-0.1-0.1-0.1-0.2-0.1L94.2,102.6
		z M94.4,84.4c0.1-0.1,0.2-0.1,0.3-0.1c0,0,0.2,0,0.4-0.1h-0.7V84.4z M120.3,87.2l-0.1-0.1V87c0-0.1,0-0.2,0.1-0.3
		c0,0,0.1-0.1,0.1-0.2l-0.2-0.2v-0.1l-0.2-0.1c-0.1-0.4-0.4-0.7-0.8-0.9c-0.3-0.2-0.6-0.4-1-0.4c-0.4-0.1-1.1-0.3-2-0.4
		c-0.6-0.1-1.2-0.3-1.9-0.3c-0.7-0.1-1.4-0.1-2-0.2c-1.4-0.1-2.8-0.2-4.1-0.2c-1.3,0-2.6,0-3.8,0h3.8h0.8c-0.4,0-0.8,0-1.1,0
		c-0.3,0-0.5,0-0.5,0h-3.1h-2.9c-0.4,0.1-0.9,0.1-1.2,0.1c-0.4,0-0.8,0-1.1,0c0.4,0.1,1,0.1,1.8,0.1c0.8,0,1.5-0.1,2-0.2
		c0.7,0,1.4,0,1.9,0.1c0.5,0,1.1,0.1,1.8,0.1c0.1,0,0.3,0,0.4-0.1c0.1,0,0.3-0.1,0.5-0.1c0.8,0.1,1.6,0.1,2.4,0.1
		c0.8,0,1.7,0,2.6,0.1c0.4,0.1,0.8,0.1,1.2,0.2c0.4,0,0.9,0.1,1.5,0.3c0.4,0.1,0.8,0.1,1.2,0.2c0.5,0,0.9,0.1,1.4,0.3
		c0.1,0.1,0.3,0.1,0.6,0.2c0.3,0,0.5,0.1,0.6,0.3c0.1,0.1,0.3,0.1,0.3,0.2c0.1,0,0.2,0.1,0.3,0.2c0.1,0.1,0.2,0.3,0.3,0.4
		c0.1,0.1,0.2,0.2,0.4,0.4l0.2,0.4c-0.1,0.1-0.1,0.2-0.1,0.3c0,0.1,0,0.3-0.1,0.3l-0.1,0.1c0,0.1,0,0.3,0.1,0.5
		c-0.1,0.6-0.3,1-0.3,1.2c-0.3,0.9-0.6,1.8-0.9,2.7c-0.3,0.9-0.8,1.7-1.4,2.5c-0.7,1.4-1.5,2.5-2.5,3.5c-0.4,0.6-0.9,1.1-1.4,1.6
		c-0.5,0.5-1,0.9-1.7,1.4c-1.2,0.9-2.5,1.5-3.7,2c-0.3,0.1-0.6,0.1-1,0.2c-0.4,0.1-0.7,0.1-1,0.2c-0.9,0.2-1.6,0.3-2.2,0.3
		c-0.3,0-0.6,0-0.9,0c-0.3,0-0.7,0-1,0.1c-0.4,0-0.7,0-1-0.1c-0.3,0-0.6-0.1-0.9-0.1c-0.4,0-0.7,0-1,0s-0.7,0-1-0.1
		c-0.1-0.1-0.3-0.1-0.4-0.1c-0.1,0-0.3,0-0.4-0.1c-0.1,0-0.3,0-0.4-0.1c-0.1,0-0.3-0.1-0.4-0.1l-1.3-0.3c0.1,0.1,0.2,0.1,0.4,0.1
		c0.1,0,0.3,0,0.4,0.1c0.1,0,0.2,0.1,0.3,0.1c1.2,0.4,2.4,0.5,3.4,0.5h0.9c0.1,0.1,0.4,0.1,0.8,0.1h1.8c0.5-0.1,1-0.1,1.6-0.2
		c0.5,0,1.1-0.1,1.7-0.3h0.3l0.4-0.1l0.3-0.1l0.3-0.1h0.3c0.4-0.1,0.8-0.3,1.4-0.5c0.3-0.2,0.6-0.4,0.8-0.5c0.3-0.1,0.5-0.3,0.8-0.4
		c0.2-0.1,0.5-0.3,0.7-0.4c0.3-0.1,0.5-0.2,0.7-0.4c0.3-0.1,0.5-0.4,0.7-0.7c0.2-0.3,0.4-0.5,0.6-0.7c0.1-0.1,0.4-0.3,0.7-0.5
		c0.3-0.2,0.4-0.4,0.4-0.7c0.8-0.9,1.5-1.8,2.2-2.7c0.7-0.9,1.2-1.9,1.6-2.9c0.1-0.4,0.3-0.9,0.5-1.4c0.2-0.5,0.3-1,0.5-1.5
		c0.2-0.5,0.3-1,0.3-1.4c0.1-0.1,0.1-0.2,0.1-0.3c-0.1-0.1-0.1-0.3-0.1-0.5l0.2-0.1L120.3,87.2z"/>
	<path fill="#FFFFFF" d="M129.2,121c-1,2.1-2,4.2-3,6.2c-1,2.1-2.1,4.1-3.3,6.2c-0.6,1-1.2,2-1.8,3.1c-0.6,1-1.3,2-2,3
		c-1.2,2-2.7,3.7-4.3,5.3c-0.1,0.1,0,0.1,0.1,0c0.1,0,0.2-0.1,0.3-0.2c0.1-0.1,0.1-0.1,0.2-0.1c-0.4,0.2-0.7,0.5-1,1
		c-0.2,0.2-0.4,0.4-0.7,0.5c-0.2,0.1-0.4,0.3-0.5,0.4c0.6-0.4,1.1-0.9,1.6-1.5c0.4-0.2,0.6-0.5,0.8-0.7c0.2-0.3,0.4-0.5,0.7-0.8
		c-0.3,0.3-0.5,0.5-0.7,0.8c-0.1,0.2-0.4,0.4-0.7,0.7c-0.2,0.2-0.4,0.5-0.7,0.7c-0.2,0.3-0.5,0.5-0.9,0.8c-0.7,0.7-1.4,1.1-2.2,1.4
		l-1.3,0.7c-0.7,0.1-1.3,0.2-1.6,0.1c0.3,0.1,0.7,0.1,1.2,0c0.6-0.1,1-0.3,1.4-0.4c0.6-0.2,1.1-0.5,1.5-0.8c0.4-0.3,0.8-0.6,1.2-0.9
		c0.1,0,0,0.1-0.2,0.4c-0.1,0.1-0.3,0.3-0.5,0.5c-0.2,0.2-0.3,0.3-0.5,0.4c-0.6,0.3-1.1,0.5-1.5,0.8c-0.4,0.2-0.9,0.4-1.4,0.5
		c-0.3,0.1-0.6,0.1-0.8,0.2c-0.3,0-0.6,0-0.9-0.1c-0.1,0-0.3-0.1-0.8-0.2c-0.1-0.1-0.3-0.2-0.4-0.2c-0.1-0.1-0.1-0.1-0.2-0.1
		c0,0-0.1,0-0.2-0.1l-0.1-0.1l-0.1-0.1h0.1v0.1c-0.1-0.2-0.3-0.4-0.5-0.6c-0.2-0.2-0.4-0.4-0.5-0.7c-0.1-0.3-0.3-0.6-0.3-0.9
		c-0.1-0.3-0.2-0.6-0.3-0.9c-0.1-0.4-0.2-0.7-0.3-0.9c0-0.3-0.1-0.6-0.1-0.9c-0.1-0.7-0.2-1.3-0.2-1.9c0-0.6,0-1.2-0.1-1.9
		c0-1.4,0-2.7,0.1-4c0.1-1.3,0.2-2.6,0.4-3.8c0.2-1.9,0.5-3.8,0.8-5.7c0.3-1.9,0.6-3.8,0.9-5.7c0.4-1.8,0.8-3.6,1.2-5.5
		c0.4-1.8,0.9-3.7,1.3-5.6c0.5-1.9,1-3.7,1.5-5.5c0.5-1.8,1-3.6,1.6-5.4c0.3-0.9,0.6-1.8,0.8-2.7c0.3-0.9,0.6-1.8,0.9-2.7l0.1-0.3
		v-0.2v-0.1l0.1-0.7c0.1-0.4,0.3-0.8,0.4-1.4c0.1-0.6,0.3-1.1,0.5-1.5c0.2-0.4,0.3-0.9,0.5-1.4c0.1-0.5,0.3-1,0.5-1.4
		c0.2-0.4,0.5-0.9,0.8-1.4c0.1-0.4,0.4-0.9,0.7-1.3c0.3-0.4,0.6-0.8,0.9-1.2c0.6-0.9,1.3-1.7,2.2-2.3c0.4-0.3,0.7-0.5,1.1-0.8
		c0.4-0.2,0.8-0.4,1.1-0.5c0.2-0.1,0.5-0.2,0.8-0.2c0.3,0,0.5,0,0.7-0.1h0.3h0.2h0.1h0.1h0.1h0.1h0.2c0.1,0,0.1,0,0.2,0.1
		c0,0,0.1,0.1,0.2,0.1c0.6,0.2,1,0.5,1.4,0.9c0.7,0.4,1,0.9,1.1,1.4c0.1,0.3,0.3,0.6,0.3,0.8c0.1,0.3,0.2,0.5,0.3,0.8
		c0.1,0.3,0.1,0.5,0.1,0.8c0,0.2,0,0.5,0.1,0.8c0.1,1.1,0.1,2.1,0,3c0,0.5,0,1-0.1,1.5c0,0.5-0.1,0.9-0.2,1.4
		c-0.1,1.2-0.3,2.2-0.3,2.8c-0.2,0.9-0.4,1.8-0.6,2.7c-0.2,0.9-0.5,1.7-0.8,2.6c-0.4,1.7-0.8,3.3-1.3,4.9c-0.5,1.6-1,3.2-1.6,4.7
		v0.1c-0.1,0.1-0.1,0.3-0.1,0.3c0,0.1,0,0.1-0.1,0.2c-0.8,1.9-1.6,3.8-2.3,5.8c-0.8,2-1.5,4-2.3,6c-0.4,1-0.7,2-1,3
		c-0.3,1-0.7,2-1,3c-0.4,1-0.7,2-1,2.9c-0.3,0.9-0.6,1.9-0.9,2.9c-0.3,0.8-0.5,1.6-0.8,2.4c-0.2,0.8-0.4,1.6-0.5,2.4
		c-0.1,0.5-0.1,0.9-0.1,1.3c0,0.4-0.1,0.7-0.2,1.1v1.1v1c0.1,0.1,0.1,0.2,0.1,0.3l-0.1,0.1h0.1l0.1,0.1v-0.1l-0.1-0.1
		c0.1-0.1,0.1-0.1,0.2-0.2c0.1,0,0.1-0.1,0.2-0.3c0.2-0.1,0.4-0.3,0.6-0.5c0.2-0.2,0.3-0.4,0.5-0.5c0.4-0.6,0.8-1,1.1-1.3
		c0.4-0.5,0.7-1,1-1.6s0.7-1.1,1-1.7c0.4-0.5,0.7-1,1-1.5c0.3-0.5,0.7-1,1-1.5c0.4-0.7,0.6-1.2,0.8-1.4c0.1-0.2,0.4-0.6,0.8-1.1
		c0.1-0.3,0.1-0.3,0-0.1c-0.1,0.3-0.2,0.3-0.1,0.3c0.4-0.7,0.7-1.4,1.1-2.1c0.4-0.7,0.6-1,0.8-1.2c-0.1,0.4-0.3,0.6-0.3,0.7
		c-0.1,0.1-0.2,0.4-0.4,0.8c-0.1,0.1-0.1,0.2,0,0.1c0.1-0.1,0.2-0.3,0.3-0.4c0.1-0.2,0.3-0.5,0.6-0.8c-0.1,0.3-0.3,0.6-0.5,0.9
		c-0.2,0.3-0.4,0.7-0.6,1.1c0.2-0.4,0.4-0.7,0.5-0.9c0.1-0.3,0.3-0.5,0.4-0.7c0.1-0.2,0.2-0.5,0.3-0.7c0.1-0.3,0.3-0.6,0.5-0.9
		c0.1-0.1,0.1-0.1,0.1,0.1c0,0.1-0.1,0.2-0.3,0.3c0.1-0.1,0.4-0.5,0.8-1.2c-0.1,0.4-0.1,0.4,0,0.1c0.1-0.3,0.3-0.6,0.4-0.9
		c0,0.1,0,0.2-0.1,0.3c-0.1,0.3-0.2,0.5-0.2,0.5l0.2-0.7c0.1-0.1,0.1-0.1,0.1-0.2c0-0.1,0-0.1,0.1-0.2c0-0.1,0-0.1,0.1-0.2
		c0.2-0.4,0.2-0.3,0,0.2c-0.2,0.5-0.4,0.9-0.5,1.2c0.1-0.1,0.3-0.4,0.5-0.8c0.2-0.4,0.3-0.6,0.4-0.8c0.1-0.1,0.1-0.2,0.1-0.1
		c0,0.1-0.1,0.1-0.1,0.2c0.2-0.5,0.4-0.9,0.7-1.3c0.2-0.4,0.4-0.7,0.5-1.1c0.2-0.3,0.4-0.6,0.4-1h1.1c-1.2,2.3-2.2,4.5-3.1,6.4
		c-0.9,2-1.9,3.7-2.9,5.3c0.1-0.1,0.3-0.3,0.3-0.5c0.1-0.2,0.1-0.3,0.2-0.5c0.1-0.1,0.1-0.2,0-0.1c-0.1,0.1-0.3,0.5-0.7,1.2
		c-0.1,0.1,0,0,0.2-0.3c0.2-0.4,0.3-0.5,0.2-0.4c-0.1,0.1-0.3,0.4-0.4,0.7c-0.1,0.3-0.2,0.5-0.4,0.8c-0.1,0.2-0.2,0.3-0.1,0.3
		c0.1,0,0,0-0.1,0.2c-0.2,0.4-0.4,0.7-0.6,1c-0.2,0.3-0.4,0.7-0.6,1c0.1-0.1,0.1-0.1,0,0.1c-0.1,0.1-0.3,0.5-0.5,1
		c0.1-0.3,0.2-0.4,0.3-0.4c0,0,0,0-0.1,0.1l0.5-0.9c-0.1,0.4-0.3,0.7-0.5,1c-0.2,0.3-0.4,0.6-0.7,1c-0.2,0.4-0.4,0.8-0.6,1.1
		c-0.2,0.3-0.5,0.7-0.8,1c-0.1,0.1,0,0.1,0.2-0.2c0.3-0.4,0.4-0.6,0.4-0.5c-0.2,0.4-0.5,0.7-0.7,1c-0.3,0.3-0.5,0.7-0.6,1
		c-0.1,0.3-0.3,0.5-0.6,0.8c-0.3,0.2-0.6,0.5-0.9,0.9c-0.1,0.1-0.3,0.3-0.5,0.8l-0.7,0.7c-0.1,0.1-0.3,0.2-0.3,0.2
		c0,0.1-0.1,0.2-0.3,0.4c-0.1,0-0.4,0.1-0.7,0.2c-1.1,1-2,1.7-2.8,2c-0.8,0.3-1.4,0.5-2,0.5c-0.7,0-1.2-0.2-1.5-0.5
		c-0.8-0.7-1.3-2-1.6-3.7c-0.3-1.8-0.4-4-0.3-6.6v0.7v2.5c0,0.5,0,1,0.1,1.5c0.1,0.5,0.1,1,0,1.4c0.1,0.6,0.3,1.1,0.4,1.5
		s0.2,0.8,0.4,1.2c0,0.1,0,0.3,0.1,0.4c0.1,0.1,0.1,0.2,0.2,0.4c0.1,0.4,0.4,0.7,0.7,0.9c0.1,0.1,0.1,0.1,0.2,0.1
		c0,0.1,0,0.1,0.1,0.1c0.1,0.1,0.3,0.2,0.3,0.2l0.8,0.2c0.2,0,0.4,0,0.7-0.1c0.2,0,0.5-0.1,0.8-0.2c0.4-0.1,0.8-0.3,1.2-0.5
		c0.4-0.2,0.6-0.3,0.8-0.5c-0.2,0.2-0.4,0.4-0.7,0.5c-0.1,0.1-0.3,0.1-0.3,0.2c-0.1,0.1-0.2,0.1-0.3,0.2c-0.2,0.1-0.4,0.1-0.5,0.2
		c-0.1,0-0.3,0.1-0.5,0.2c0.1-0.1,0.4-0.2,0.9-0.3c0.1-0.1,0.3-0.1,0.4-0.2c0.1,0,0.2-0.1,0.4-0.2c0.2-0.1,0.5-0.3,0.8-0.5
		c0.3-0.2,0.5-0.3,0.7-0.5c0.2-0.1,0.4-0.3,0.7-0.7c0.1-0.1,0.3-0.3,0.5-0.4c0.2-0.1,0.4-0.3,0.7-0.4c0.1-0.1,0.3-0.3,0.5-0.5
		c0.2-0.2,0.3-0.4,0.5-0.7v-0.1c0.4-0.4,0.7-0.7,1-1c0.3-0.3,0.5-0.5,0.8-0.7c-0.1,0.1-0.2,0.2-0.1,0.1c0.1-0.1,0.2-0.3,0.3-0.7h0.1
		c0.4-0.8,0.9-1.5,1.4-2.1c0.4-0.7,0.8-1.3,1.2-2c0.4-0.7,0.8-1.3,1.2-1.8c0,0.1-0.2,0.4-0.7,1c-0.1,0.1-0.2,0.3-0.2,0.3
		c0,0.1,0,0.2-0.1,0.3c-0.1,0.1-0.1,0.3-0.1,0.3c0.1-0.4,0.4-0.7,0.7-1.1c0.3-0.4,0.5-0.8,0.8-1.2c0.3-0.4,0.5-0.9,0.8-1.2
		c0.2-0.4,0.4-0.7,0.5-0.8c-0.1,0.4-0.3,0.7-0.5,1c-0.2,0.3-0.5,0.7-0.8,1.1c0.2-0.4,0.5-0.8,0.8-1.4c0.3-0.6,0.6-1.2,0.9-1.7
		c0.4-0.6,0.8-1.2,1.1-1.8c0.3-0.6,0.6-1.1,0.8-1.6c-0.4,0.9-0.8,1.8-1.4,2.7c-0.5,0.9-1.1,1.9-1.7,2.9c-0.6,1-1.1,2-1.7,3.1
		c-0.5,1.1-1.2,2.1-2,3.1c-0.4,0.6-0.7,1.1-1.1,1.5c-0.4,0.4-0.8,0.9-1.2,1.4c-0.4,0.6-0.8,1.1-1.2,1.5c-0.5,0.4-0.9,0.9-1.4,1.3
		c-0.2,0.1-0.4,0.3-0.7,0.5c-0.2,0.2-0.5,0.4-0.8,0.7c-0.4,0.1-0.7,0.3-0.9,0.4c-0.3,0.1-0.6,0.3-0.9,0.4c-0.2,0.1-0.5,0.1-0.8,0.2
		c-0.3,0.1-0.6,0.1-0.9,0.1c-0.2,0-0.6-0.1-1.2-0.2h-0.1c-0.1,0-0.1,0-0.2-0.1c-0.1,0-0.3,0-0.3-0.1l-0.1-0.1h-0.1v-0.1v0.1v-0.1
		c-0.2-0.2-0.4-0.5-0.7-1c-0.3-0.4-0.5-0.8-0.5-1.2c-0.1-0.4-0.3-0.8-0.4-1.2c-0.1-0.5-0.2-0.9-0.3-1.4c-0.1-0.4-0.1-0.9-0.1-1.3
		c0-0.4,0-0.9,0-1.3c-0.1-0.4-0.1-0.8-0.1-1.2c0-0.4,0-0.9-0.1-1.4c0,0.2,0,0.5,0,0.7c0,0.3,0,0.6-0.1,0.9c0,0.8,0.1,1.6,0.3,2.5
		c-0.1,0.9,0.1,2,0.4,3.1c0.1,0.3,0.2,0.6,0.3,0.8c0.1,0.3,0.2,0.5,0.4,0.8c0.1,0.4,0.3,0.8,0.8,1.2v0.1h0.1
		c0.1,0.1,0.1,0.1,0.2,0.1c0.1,0.1,0.2,0.1,0.3,0.1c0,0,0.1,0,0.3,0.1c0.3,0.1,0.7,0.2,1.2,0.2c0.5,0,0.9-0.1,1.2-0.2
		c0.6-0.1,1-0.3,1.3-0.4c0.6-0.3,1.1-0.6,1.5-1c0.4-0.4,0.9-0.8,1.4-1.2c0.4-0.4,0.8-0.8,1.2-1.2c0.4-0.4,0.8-0.9,1.2-1.5
		c1.2-1.4,2.3-3,3.4-4.7c1.1-1.7,2.1-3.4,3.1-5c1-1.7,1.9-3.3,2.7-4.9c0.8-1.6,1.5-3.1,2.1-4.5c0.2-0.4,0.5-0.8,0.7-1.2
		C128.9,121.7,129.1,121.3,129.2,121l0.8-1.5L129.2,121z M112.2,137.9c0,0.4,0,0.7-0.1,1.1c-0.1,0.4-0.1,0.7,0,1.1v1.2
		c0,0.1,0,0.3-0.1,0.5c0,0.2,0,0.3,0.1,0.5c0,0.1,0,0.1,0.1,0.2v0.1h0.2v0.1c0.1,0.1,0.3,0.2,0.3,0.2c0.1,0,0.1,0,0.2,0.1
		c0,0,0.1,0.1,0.2,0.1c-0.1,0-0.2,0.1-0.2,0.2c0.3,0.1,0.7,0,1.1-0.3c0.2-0.2,0.4-0.5,0.7-0.7c0.2-0.3,0.4-0.5,0.7-0.6
		c0.3-0.4,0.6-0.7,0.9-1.1c0.3-0.4,0.6-0.8,0.9-1.2c0-0.1,0.1-0.2,0.3-0.4c0.4-0.5,0.7-1,1-1.6c0.3-0.6,0.5-1,0.8-1.4
		c-0.4,0.8-0.8,1.5-1.1,2s-0.7,1.1-1,1.6c-0.1,0.2-0.3,0.4-0.4,0.5c-0.1,0.1-0.1,0.1,0.1-0.2c-0.7,0.9-1.1,1.4-1.2,1.5
		c-0.1,0.3-0.4,0.5-0.7,0.7c0.1-0.1,0.2-0.2,0.3-0.3c0.1-0.1,0.3-0.4,0.5-0.7c0.4-0.5,0.8-1.1,1.2-1.7c-0.1,0.1,0-0.1,0.4-0.7
		c0.2-0.2,0.4-0.4,0.4-0.7c0.1-0.2,0-0.3-0.1-0.1c-0.2,0.4-0.5,0.8-0.9,1.2c-0.4,0.5-0.8,1-1.2,1.6c-0.2,0.3-0.4,0.6-0.6,0.8
		c-0.2,0.3-0.4,0.5-0.7,0.7c-0.2,0.1-0.4,0.3-0.5,0.4c-0.1,0.1-0.2,0.3-0.4,0.4h-0.1c-0.2,0-0.4,0-0.4-0.1l-0.1-0.1v-0.1h-0.2v-0.1
		c-0.2-0.3-0.3-0.6-0.1-1v-1.2c0-0.4,0-0.9,0.1-1.3c0-0.4,0.1-0.8,0.1-1.2c0.1-0.5,0.1-0.9,0.2-1.3c0.1-0.4,0.1-0.7,0.2-1.1
		c-0.1,0.4-0.1,0.7-0.2,1.1C112.3,136.9,112.2,137.4,112.2,137.9z M113.4,142.8c-0.1,0.1-0.3,0.2-0.3,0.2v-0.1
		C113.2,142.9,113.3,142.9,113.4,142.8z M120.5,135.5c-0.1,0.2-0.4,0.6-0.8,1.2c-0.4,0.6-0.7,1.2-1.1,2c-0.6,0.9-1,1.6-1.3,2.1
		c-0.3,0.4-0.6,0.7-0.8,0.9c-0.3,0.2-0.5,0.4-0.7,0.7c-0.1,0.2-0.4,0.5-0.8,0.9l-0.2,0.2c-0.1,0.1-0.3,0.3-0.3,0.4
		c0.1-0.1,0.3-0.3,0.3-0.4c0.5-0.4,1-0.9,1.4-1.4c0.4-0.4,0.8-0.8,1.1-1.2c0.3-0.5,0.5-0.9,0.8-1.2c0.4-0.6,0.9-1.2,1.2-2
		C119.8,136.7,120.2,136.1,120.5,135.5z M114.5,142.2c0.9-0.7,1.8-1.7,2.5-2.9c-0.1,0.3-0.3,0.5-0.5,0.8c-0.3,0.4-0.6,0.7-0.9,1.1
		C115.3,141.5,115,141.9,114.5,142.2z M114.8,141.8c0.4-0.4,0.7-0.7,1-1.1c0.3-0.4,0.7-0.9,1.1-1.5c0.1-0.1,0.3-0.3,0.3-0.4
		c-0.2,0.2-0.4,0.4-0.4,0.5c-0.4,0.5-0.7,1-1,1.4C115.5,141.1,115.1,141.5,114.8,141.8z M126.5,94c0.1-0.2,0.1-0.5,0.2-0.9
		c0.1-0.4,0.1-0.8,0.1-1.1c0.1-0.4,0.1-0.7,0.2-0.9c0-0.3,0.1-0.3,0.1-0.3c-0.1,0.3-0.1,0.6-0.2,1c0,0.4-0.1,0.7-0.2,1.1
		c-0.1,0.4-0.1,0.7-0.2,0.9c-0.1,0.3-0.1,0.4-0.1,0.5V94H126.5z"/>
	<path fill="#FFFFFF" d="M159.2,125.5c0.3-0.6,0.5-1.2,0.8-1.7c0.2-0.6,0.4-1,0.7-1.4c-0.4,0.7-0.7,1.6-1.1,2.7
		c-0.2,0.4-0.4,0.9-0.6,1.4c-0.2,0.5-0.4,0.9-0.6,1.4c-0.4,1-0.8,2-1.2,2.9c-0.5,0.9-0.9,1.8-1.4,2.8c-0.8,1.8-1.8,3.7-2.9,5.6
		c-0.4,0.9-0.9,1.8-1.6,2.7c-0.3,0.4-0.6,0.9-0.9,1.3c-0.3,0.4-0.6,0.8-0.9,1.2c0,0.1,0,0.1,0.1,0l0.3-0.3c-0.1,0.1-0.3,0.4-0.8,1
		c-0.4,0.4-0.6,0.7-0.8,1c0.2-0.2,0.4-0.5,0.6-0.7c0.2-0.3,0.4-0.5,0.6-0.8c0.1-0.3,0.3-0.6,0.5-0.8c0.2-0.3,0.4-0.5,0.5-0.7
		c-0.1,0.2-0.3,0.4-0.5,0.7c-0.2,0.2-0.3,0.5-0.5,0.8c-0.1,0.2-0.3,0.5-0.5,0.7c-0.2,0.3-0.4,0.5-0.6,0.7c-0.1,0.1-0.3,0.3-0.4,0.4
		c-0.1,0.1-0.3,0.3-0.4,0.4c-0.1,0.1-0.3,0.3-0.4,0.4c-0.1,0.1-0.3,0.2-0.5,0.4c-0.3,0.3-0.7,0.5-1.3,0.8c-0.1,0-0.1,0-0.2,0.1
		c0,0-0.1,0.1-0.3,0.1h-0.2h-0.1h-0.1c-0.1,0.1-0.3,0.1-0.4,0.1c-0.1,0-0.3-0.1-0.4-0.1c0.1,0,0.2,0,0.3,0.1c0,0,0.1,0.1,0.3,0.1
		h0.3c0.1,0,0.3,0,0.4-0.1c0.5,0,1-0.2,1.5-0.5l1.3-1c0.1-0.1,0.3-0.3,0.5-0.4c0.2-0.1,0.3-0.3,0.5-0.4c0.1-0.1,0.2-0.1,0.1,0
		c-0.1,0.1-0.2,0.3-0.3,0.4c-0.1,0.1-0.3,0.3-0.4,0.4c-0.1,0.1-0.2,0.3-0.3,0.4c-0.3,0.2-0.6,0.4-0.8,0.7c-0.3,0.2-0.6,0.4-0.9,0.5
		c-0.1,0.1-0.5,0.3-1.1,0.4h-0.3c-0.1,0-0.1,0-0.1,0.1c0,0-0.1,0.1-0.2,0.1h-0.1h-0.1H144c-0.7,0-1.3-0.1-1.8-0.4
		c-0.6-0.3-1.1-0.7-1.6-1.2c-0.4-0.5-0.8-1-1-1.6c-0.1-0.2-0.3-0.5-0.4-1c-0.1,0.1-0.3,0.3-0.4,0.4c-0.1,0.1-0.2,0.3-0.4,0.4
		c-1.2,1.2-2.6,2.2-4,2.9c-0.4,0.1-0.9,0.3-1.2,0.4c-0.4,0.1-0.8,0.3-1.2,0.3c-0.1,0.1-0.3,0.1-0.5,0.1c-0.2,0-0.4,0-0.7,0.1h-0.3
		h-0.2h-0.7c-0.4-0.1-0.9-0.1-1.3-0.2c-0.4-0.1-0.8-0.2-1.2-0.3c-0.7-0.3-1.3-0.7-2.1-1.3c-0.9-0.8-1.4-1.5-1.7-2.1
		c-0.6-0.8-1-1.6-1.2-2.5c-0.3-0.9-0.5-1.7-0.5-2.6c-0.1-0.9-0.1-1.7-0.1-2.6c0-1.7,0.2-3.4,0.7-5.1c0.3-1.5,0.7-3.1,1.3-4.7
		c0.3-0.8,0.6-1.6,0.9-2.3c0.3-0.7,0.6-1.4,1-2.2c1.2-3,2.7-5.7,4.5-8.1c0.5-0.7,1-1.3,1.5-1.8c0.5-0.6,1-1.2,1.6-1.7
		c0.3-0.4,0.6-0.7,0.8-0.9c0.3-0.2,0.5-0.5,0.8-0.8c0.1-0.1,0.3-0.2,0.5-0.3l0.2-0.2l0.2-0.1c0.3-0.3,0.6-0.5,1-0.7l0.2-0.2l0.2-0.1
		c0.1-0.1,0.2-0.1,0.3-0.2c0,0,0.1-0.1,0.3-0.2h0.1l0.1-0.1l0.2-0.1c0.1-0.1,0.2-0.1,0.3-0.1c0,0,0.1,0,0.3-0.1
		c0.7-0.3,1.4-0.5,2.2-0.7c1.4-0.4,2.9-0.5,4.3-0.3c0.1,0,0.1,0,0.2,0.1c0.1,0,0.2,0.1,0.3,0.1h0.1l0.1,0.1h0.2c0.1,0,0.3,0,0.3,0.1
		h0.1h0.2l0.1,0.1h0.1c0,0.1,0.1,0.1,0.2,0.1c0.7,0.4,1.4,0.9,2.2,1.5c0.6,0.7,1,1.4,1.2,2.3c0.1,0.4,0.3,0.9,0.3,1.2
		c0.1,0.4,0.1,0.8,0.2,1.2c0.1,0.5,0.1,1,0.1,1.5c0,0.5-0.1,0.9-0.1,1.4c-0.1,0.5-0.1,1-0.2,1.5c-0.1,0.5-0.1,1-0.2,1.5
		c-0.1,0.1-0.1,0.3-0.1,0.3c0,0.1,0,0.2-0.1,0.3l-0.1,0.2l0.1-0.1l-0.1,0.1l-0.1,0.3c-0.1,0.2-0.1,0.4-0.1,0.7s0,0.4-0.1,0.7
		c-0.1,0.4-0.2,0.9-0.3,1.3c-0.1,0.4-0.2,0.9-0.3,1.3c-0.2,0.9-0.4,1.7-0.5,2.6c-0.1,0.9-0.3,1.7-0.5,2.5c-0.1,0.9-0.3,1.7-0.4,2.6
		c-0.1,0.9-0.2,1.7-0.4,2.5c-0.1,0.7-0.2,1.4-0.2,2.1c0,0.7,0,1.3-0.1,2c0,0.4,0,0.7,0.1,0.9c0,0.3,0.1,0.5,0.1,0.8
		c0.1,0.1,0.1,0.1,0.1,0.2c0.1,0,0.1,0,0.1-0.1c0,0,0-0.1,0.1-0.1c0.4-0.4,0.8-0.8,1-1.1c0.3-0.4,0.6-0.7,0.9-1.1
		c0.3-0.4,0.6-0.8,0.8-1.1c0.6-0.8,1.2-1.7,1.8-2.7c0.3-0.4,0.6-0.9,0.8-1.3c0.3-0.4,0.5-0.9,0.8-1.4c0.3-0.6,0.5-1,0.7-1.2
		c0.1-0.2,0.3-0.5,0.5-0.9c0.1-0.2,0.2-0.2,0.1,0c-0.1,0.2-0.2,0.3-0.2,0.2c0.4-0.6,0.7-1.2,1-1.7c0.3-0.6,0.5-0.9,0.7-1
		c-0.1,0.3-0.2,0.5-0.3,0.5c0,0.1-0.2,0.3-0.4,0.7c-0.1,0.2,0,0.1,0.3-0.3c0.3-0.4,0.4-0.7,0.5-0.7c-0.1,0.2-0.3,0.5-0.4,0.7
		c-0.1,0.3-0.3,0.6-0.4,0.9c0.4-0.7,0.6-1.1,0.8-1.4c0.1-0.3,0.4-0.7,0.8-1.4c0.1-0.1,0,0-0.1,0.3c0.1-0.1,0.3-0.5,0.5-1.1
		c-0.1,0.4-0.1,0.4,0,0.2c0.1-0.3,0.3-0.5,0.5-0.8c0,0.1-0.1,0.2-0.2,0.3c-0.1,0.1-0.2,0.3-0.3,0.4l0.5-1.1h0.1
		c0.3-0.9,0.7-1.7,1.3-2.6l0.2-0.2l0.3,0.1l-0.3,0.7c-0.1,0.2-0.3,0.5-0.4,0.9c-0.1,0.4-0.2,0.7-0.4,1.1c0.1-0.3,0.3-0.6,0.4-1
		c0.1-0.4,0.4-0.8,0.8-1.4c-0.2,0.4-0.5,0.9-0.8,1.5s-0.6,1.3-1,1.8c-0.1,0.2-0.1,0.4-0.2,0.6c-0.1,0.2-0.1,0.4-0.2,0.6
		c0.3-0.6,0.6-1.1,0.9-1.6c0.3-0.5,0.7-1.2,1-2c-0.1,0.3-0.4,0.8-0.8,1.6c-0.4,0.8-0.7,1.4-0.9,1.9c0.1-0.1,0.2-0.1,0.1,0
		c-0.1,0.1,0,0,0.2-0.5c0,0.1,0,0.2-0.1,0.3c-0.1,0.1-0.1,0.3-0.2,0.4l0.1-0.2c0.1-0.1,0.1-0.1,0.1-0.2c0-0.1,0-0.2,0.1-0.3
		c0.1-0.2,0.3-0.4,0.4-0.7c0.1-0.2,0.2-0.4,0.4-0.5c-0.2,0.4-0.5,0.8-0.8,1.4c-0.3,0.6-0.5,1.1-0.7,1.4c0.1-0.1,0.1-0.2,0.2-0.2
		c0,0,0.2-0.2,0.4-0.6c-0.1,0.3-0.3,0.5-0.4,0.8c-0.1,0.2-0.3,0.5-0.4,0.9c-0.1,0.4-0.3,0.7-0.4,0.9c-0.1,0.3-0.2,0.5-0.4,0.6
		c-0.1,0.2-0.3,0.5-0.5,0.9c-0.2,0.4-0.3,0.8-0.5,1.1c0.1-0.1,0.2-0.4,0.3-0.7c0.1-0.3,0.3-0.5,0.3-0.6s0.1-0.1,0,0
		s-0.3,0.5-0.5,1.1c-0.1,0.1,0-0.1,0.2-0.4c0.2-0.3,0.2-0.5,0.2-0.4c-0.1,0.1-0.3,0.3-0.3,0.6c-0.1,0.3-0.2,0.5-0.3,0.6
		c-0.1,0.2-0.1,0.3-0.1,0.3c0,0,0,0-0.1,0.2c-0.4,0.4-0.7,1-1,1.7c0-0.1,0-0.1-0.1,0.1c0,0.1-0.2,0.4-0.4,0.8l0.2-0.3
		c0,0.1,0,0.1,0.1,0c0-0.1,0.2-0.3,0.4-0.7c-0.3,0.6-0.6,1.1-1,1.7c-0.4,0.5-0.7,1.1-1.1,1.8c-0.1,0.1-0.1,0.2-0.1,0.1
		c0-0.1,0.1-0.2,0.2-0.3c0.2-0.2,0.3-0.4,0.3-0.4c-0.1,0.3-0.3,0.6-0.5,0.9c-0.2,0.3-0.4,0.6-0.5,0.9c-0.1,0.3-0.3,0.5-0.4,0.6
		s-0.1,0.1,0.1-0.1c-0.1,0.1-0.3,0.3-0.4,0.6c-0.1,0.3-0.4,0.6-0.8,0.9l-0.4,0.7l-0.2,0.4c-1,1.4-2,2.5-2.8,3.3
		c-0.9,0.8-1.7,1.3-2.5,1.4c-1.2,0-2-0.4-2.6-1.2c-0.6-0.8-1-1.8-1.3-2.9v0.1c0.1,0.2,0.1,0.4,0.1,0.7c0,0.2,0.1,0.4,0.2,0.7
		c0.1,0.5,0.4,0.9,0.7,1.2c0.1,0.3,0.4,0.6,0.8,1c0.1,0.2,0.4,0.4,0.8,0.4c0.4,0.1,0.8,0.2,1,0.2h0.4h0.5c0.3-0.1,0.6-0.2,0.9-0.4
		c0.6-0.3,1-0.5,1.2-0.8c-0.1,0.1-0.3,0.4-0.8,0.7c-0.1,0.1-0.3,0.2-0.5,0.3c-0.2,0.2-0.5,0.4-0.8,0.4c0.3-0.1,0.5-0.3,0.8-0.3
		c0.1-0.1,0.3-0.1,0.3-0.2c0.1-0.1,0.2-0.1,0.3-0.2c0.2-0.1,0.4-0.3,0.6-0.5c0.2-0.2,0.3-0.3,0.5-0.5c0.2-0.1,0.4-0.3,0.7-0.7
		c0.1-0.1,0.3-0.3,0.4-0.4c0.1-0.1,0.2-0.3,0.4-0.4c0.3-0.4,0.5-0.7,0.8-1c0.2-0.3,0.4-0.6,0.5-0.8c0.8-1.1,1.5-2.2,2.1-3.4
		c0.4-0.6,0.7-1.1,1-1.7c0.3-0.5,0.6-1.1,1-1.7c0,0.1-0.1,0.2-0.2,0.4c-0.1,0.2-0.2,0.4-0.4,0.6c-0.3,0.5-0.4,0.8-0.3,0.8
		c0.1-0.3,0.3-0.6,0.5-1c0.2-0.4,0.4-0.8,0.5-1.1c0.4-0.8,0.7-1.4,0.9-1.7c-0.1,0.3-0.3,0.6-0.4,0.9c-0.1,0.3-0.2,0.6-0.4,1
		c0.1-0.3,0.3-0.7,0.5-1.1c0.2-0.5,0.5-1,0.8-1.6c0.3-0.6,0.6-1.1,0.8-1.6c0.3-0.5,0.5-0.9,0.6-1.3c-0.4,1-0.9,2-1.4,3.1
		c-0.5,1-1.1,2.2-1.6,3.4c-0.3,0.6-0.6,1.2-0.9,1.7c-0.3,0.6-0.6,1.2-1,1.7c-0.4,0.6-0.7,1.2-1.1,1.7c-0.4,0.6-0.7,1.2-1.1,1.7
		c-0.2,0.4-0.4,0.7-0.7,0.9c-0.2,0.3-0.4,0.5-0.7,0.8c-0.2,0.3-0.4,0.6-0.7,0.8c-0.2,0.3-0.5,0.5-0.9,0.8c-0.1,0.1-0.4,0.4-0.9,0.7
		c-0.2,0.2-0.5,0.4-1,0.7c-0.1,0-0.2,0-0.3,0.1c0,0-0.1,0.1-0.3,0.1c-0.1,0.1-0.2,0.1-0.3,0.1h-0.2h-0.1c-0.5,0-0.9,0-1.1-0.1
		c-0.3-0.1-0.7-0.3-1.1-0.5c-0.4-0.3-0.8-0.5-1-0.8c-0.4-0.6-0.7-1.3-1.1-2.1c-0.1-0.3-0.2-0.5-0.2-0.7h-0.1c0.2,0.7,0.5,1.4,1,2.1
		c0.1,0.1,0.3,0.3,0.3,0.4c0.1,0.1,0.2,0.3,0.3,0.4c0.1,0.2,0.4,0.5,0.9,0.8c0.3,0.1,0.5,0.3,0.8,0.3c0.3,0.1,0.6,0.2,1,0.2h0.3h0.1
		h0.1h0.1c0.1,0,0.3,0,0.3-0.1c0.1,0,0.2-0.1,0.3-0.1c0.4-0.1,0.9-0.4,1.3-0.8c0.8-0.5,1.6-1.2,2.3-2.2c0.7-0.9,1.3-1.7,1.8-2.6
		c0.9-1.3,1.7-2.7,2.5-4.2c0.8-1.5,1.6-2.9,2.3-4.4c0.7-1.5,1.4-3,2-4.3C158.1,128,158.7,126.7,159.2,125.5z M134.3,135.5
		c0.1-0.4,0.1-0.8,0.1-1.2c0-0.1,0-0.3,0.1-0.5c0-0.2,0.1-0.3,0.1-0.5c-0.1,0.2-0.1,0.6-0.1,1.2
		C134.3,134.8,134.3,135.1,134.3,135.5z M134.7,139.2c0.2,0.2,0.5,0.3,0.9,0.1c1-0.4,2-1.5,3-3.3c1-1.8,1.9-3.7,2.8-5.9
		c0-0.1,0.1-0.4,0.2-0.7c0.1-0.2,0.2-0.5,0.3-0.8c0.1-0.3,0.3-0.6,0.4-1c-0.1,0.1-0.3,0.5-0.5,1c-0.2,0.5-0.3,0.9-0.5,1.3
		c-0.1,0.1-0.3,0.4-0.5,1c-0.1,0.2-0.2,0.4-0.3,0.6c0,0.2-0.1,0.3-0.3,0.4c0,0.1,0.1-0.2,0.2-0.8c-0.1,0.1-0.1,0.3-0.2,0.5
		c0,0.2-0.1,0.3-0.2,0.5c-0.1,0.1-0.2,0.4-0.3,0.7c-0.1,0.3-0.2,0.5-0.4,0.7c-0.2,0.4-0.4,0.7-0.6,1.1c-0.2,0.4-0.4,0.7-0.6,1.1
		c0-0.1,0.1-0.2,0.2-0.3c0.1-0.1,0.1-0.3,0.1-0.3c-0.1,0.3-0.3,0.5-0.3,0.8c-0.2,0.1-0.4,0.3-0.5,0.4c0.1-0.1,0.1-0.1,0.2-0.2
		c0-0.1,0.1-0.2,0.3-0.3c-0.1,0.1-0.2,0.2-0.3,0.3c-0.1,0.1-0.2,0.3-0.3,0.4c-0.3,0.4-0.5,0.7-0.7,0.8c0.8-1.2,1.6-2.6,2.4-4.2
		c0.2-0.4,0.4-0.9,0.6-1.3c0.2-0.4,0.4-0.9,0.6-1.3l0.1-0.3c0-0.1,0-0.1,0.1-0.2c0,0,0.1-0.1,0.1-0.2c0.1-0.1,0.1-0.3,0.1-0.3
		c0-0.1,0-0.2,0.1-0.3c0.1-0.3,0.3-0.7,0.5-1.3c-0.1,0.1-0.3,0.4-0.5,1c-0.1,0.1-0.1,0.3-0.1,0.4s0,0.2-0.1,0.4c0,0.1,0,0.1-0.1,0.2
		c0,0.1-0.1,0.1-0.1,0.2c-0.1,0.1-0.1,0.2-0.1,0.3c-0.2,0.2-0.4,0.6-0.7,1.2c-0.2,0.6-0.5,1.2-0.9,1.8c-0.2,0.4-0.4,0.9-0.7,1.4
		c-0.2,0.5-0.5,0.9-0.9,1.4c-0.2,0.4-0.5,0.8-0.8,1.1c-0.3,0.4-0.5,0.7-0.8,0.9c-0.1,0.1-0.1,0.1-0.2,0.1c0,0-0.1,0-0.2,0.1
		c-0.1,0.1-0.1,0.1-0.2,0.1c0.4-0.1,0.7-0.4,1-0.9c0.1-0.2,0.3-0.5,0.5-0.7c0.2-0.3,0.3-0.5,0.5-0.8c0.4-0.5,0.7-1,1-1.6
		c0.3-0.6,0.6-1.2,1-1.7c0-0.1,0-0.2-0.1-0.1c0,0.1-0.1,0.2-0.2,0.2c0.1-0.1,0.1-0.3,0.2-0.4c0-0.1,0.1-0.2,0.2-0.4
		c-0.1,0.1-0.2,0.3-0.3,0.5c0,0.2-0.1,0.4-0.2,0.5c0.1-0.4,0.3-0.7,0.4-1.1c0.1-0.4,0.3-0.8,0.6-1.4c-0.1,0.1-0.3,0.4-0.4,0.7
		c-0.1,0.3-0.3,0.6-0.4,0.7c-0.1,0.1-0.1,0-0.1-0.1c0-0.1,0-0.3-0.1-0.4c0.3-0.6,0.5-1.2,0.8-1.8c0-0.1,0.1-0.3,0.2-0.8
		c0.1-0.1,0.1-0.3,0.2-0.4c0-0.1,0.1-0.3,0.3-0.4c0.1-0.3,0.2-0.6,0.3-0.9c0-0.3,0.1-0.6,0.3-1c0.8-2,1.4-3.8,1.8-5.6
		c0.3-0.5,0.4-1,0.4-1.4c0.1-0.6,0.3-1,0.4-1.4v-0.4c-0.1,0.1-0.3,0.3-0.4,0.3c-0.1,0.1-0.3,0.3-0.5,0.4l-0.3,0.3v0.1h-0.1l-0.1,0.1
		c0,0.1,0,0.1-0.1,0.2c0,0-0.1,0.1-0.1,0.2c-0.1,0.1-0.2,0.1-0.3,0.2c0,0.1-0.1,0.1-0.2,0.2c-0.1,0.1-0.3,0.3-0.3,0.5
		c-0.1,0.2-0.2,0.4-0.3,0.5c-0.2,0.2-0.4,0.4-0.4,0.5c-0.1,0.1-0.1,0.2-0.1,0.3c-0.1,0.1-0.1,0.1-0.1,0.2c0,0,0,0.1-0.1,0.2
		c-0.3,0.4-0.5,0.8-0.5,1.1c-0.1,0.1-0.1,0.1-0.1,0.2l-0.3,0.3c0,0.2-0.1,0.4-0.2,0.5c-0.1,0.2-0.2,0.4-0.3,0.7
		c0,0.2-0.1,0.4-0.3,0.7c-0.1,0.2-0.2,0.4-0.3,0.7c-0.1,0.2-0.2,0.4-0.3,0.7v0.1c-0.2,0.6-0.4,1.2-0.7,1.7c-0.2,0.6-0.4,1.2-0.5,1.7
		c-0.1,0.4-0.3,0.8-0.4,1.2c-0.1,0.5-0.2,0.9-0.3,1.2c-0.1,0.4-0.1,0.7-0.2,1.1c-0.1,0.4-0.1,0.7-0.2,1c-0.1,0.4-0.2,0.7-0.3,1
		c0,0.3-0.1,0.7-0.2,1v0.7v0.5c0,0.2,0,0.3-0.1,0.3v-0.3c-0.1,0-0.1,0-0.1,0.1v0.2c-0.1-0.1-0.1-0.2-0.1-0.4v0.4
		c0,0.1,0,0.3,0.1,0.4c-0.1,0.1-0.1,0-0.1-0.1v0.3c-0.1-0.1-0.1-0.1-0.1,0c0,0.1,0,0.2,0.1,0.3l-0.1-0.2l0.1,0.1v0.1
		c0.1,0.1,0,0.1-0.1,0.1l-0.2-0.2c0,0.1,0,0.1,0.1,0.1c0,0,0.1,0,0.1,0.1l0.1,0.1C134.8,139.2,134.8,139.2,134.7,139.2z
		 M135.2,130.4c-0.1,0.4-0.3,0.9-0.3,1.3c-0.1,0.4-0.1,0.8-0.2,1.2c0.1-0.4,0.2-0.8,0.2-1.2c0.1-0.2,0.1-0.5,0.2-0.7
		C135.1,130.8,135.1,130.6,135.2,130.4z M139,109.1l0.9-0.3c0.2-0.1,0.5-0.1,0.8-0.2c0.3,0,0.5-0.1,0.7-0.2h0.2c-0.1,0-0.2,0-0.4,0
		c-0.2,0-0.4,0.1-0.7,0.2c-0.2,0.1-0.5,0.1-0.8,0.2C139.3,109,139.1,109.1,139,109.1z M140.1,118.9c0-0.1-0.1,0-0.2,0.2
		c-0.1,0.2-0.2,0.3-0.3,0.5v0.1c0.1-0.1,0.1-0.2,0.2-0.3c0.1-0.1,0.1-0.1,0.1-0.2C140,119,140,119,140.1,118.9z M145.6,139.9
		c-0.1-0.7-0.1-1.3,0-1.8C145.5,138.7,145.5,139.3,145.6,139.9c0,0.4,0,0.8,0.1,1c0,0.4,0,0.7,0.1,0.9c0.1,0.1,0.2,0.3,0.3,0.3
		c0,0.1,0.1,0.1,0.3,0.2c0.2,0.1,0.4,0.1,0.7,0c0.3-0.1,0.5-0.2,0.8-0.4l0.3-0.3l-0.1,0.1l0.3-0.3l-0.2,0.2l0.2-0.2
		c0.6-0.6,1.1-1.3,1.6-2.1c-0.1,0.1-0.1,0-0.1-0.2c0-0.2,0.1-0.3,0.3-0.5c0.1-0.2,0.3-0.4,0.3-0.6c0.1-0.2,0.1-0.2,0-0.1
		c-0.2,0.3-0.5,0.7-0.7,1.1c-0.3,0.4-0.6,0.9-0.9,1.4c-0.1,0.2-0.3,0.4-0.4,0.6c-0.1,0.2-0.2,0.3-0.4,0.5l-0.2,0.2
		c-0.1,0.1-0.3,0.1-0.3,0.2c-0.1,0.1-0.2,0.1-0.3,0.2c-0.3,0.1-0.5,0.2-0.8,0.1c-0.2,0-0.4-0.2-0.5-0.5c-0.1-0.3-0.2-0.6-0.2-0.9
		c0-0.1,0-0.3-0.1-0.5C145.6,140.2,145.6,140,145.6,139.9z M153,136.8c-0.1,0.3-0.3,0.6-0.4,0.8c-0.1,0.3-0.3,0.5-0.5,0.8
		c0.2-0.2,0.4-0.4,0.4-0.5c0.4-0.6,0.7-1.1,1-1.7c0.3-0.5,0.6-1.1,0.9-1.6c-0.1,0.1-0.3,0.4-0.5,0.8
		C153.5,135.9,153.3,136.3,153,136.8z M155.9,131.4l0.5-1.1c0.1,0,0,0.2-0.3,0.6C155.9,131.3,155.8,131.5,155.9,131.4z M158.1,126.6
		c-0.1,0.3-0.2,0.5-0.3,0.5c0,0-0.1,0.2-0.3,0.6c0.1-0.1,0.2-0.2,0.3-0.5C157.9,127,158,126.8,158.1,126.6c-0.1,0.1-0.1,0.2-0.1,0.2
		C158.1,126.7,158.1,126.7,158.1,126.6z M158.1,127l0.5-1.1l-0.2,0.4L158.1,127z"/>
	<path fill="#FFFFFF" d="M194.6,96.6c0,0.1,0,0.1-0.1,0.2V97v0.1v0.1v0.2l-0.3,0.3c-0.1,0.3-0.3,0.5-0.3,0.5
		c-0.2,0.1-0.4,0.3-0.5,0.4c-0.4,0.1-0.7,0.3-0.8,0.3c-0.3,0.1-0.5,0.2-0.8,0.2c-0.4,0.1-0.7,0.1-0.9,0.2c-0.2,0-0.4,0.1-0.7,0.1
		c-0.7,0.1-1.4,0.2-2.1,0.2c-0.7,0-1.4,0-2.1,0h-4c-0.8,0-1.6,0-2.4-0.1c-0.8,0-1.6-0.1-2.4-0.1l-2,5.9c-0.1,0.3-0.3,0.6-0.4,0.9
		c-0.1,0.3-0.2,0.6-0.4,0.9c-0.8,2.2-1.6,4.2-2.4,6.1c-1.7,4.1-3.2,8.1-4.6,12.1l-0.4,1.1l-0.3,1c-0.3,0.7-0.5,1.4-0.8,2.2
		c-0.1,0.7-0.3,1.4-0.5,2.1c-0.2,0.7-0.4,1.3-0.5,2.1c-0.2,0.7-0.4,1.3-0.4,2c-0.1,0.7-0.2,1.3-0.3,1.8c-0.1,0.4-0.1,0.7-0.1,0.9
		c0,0.3,0,0.5,0,0.8c0.1,0.3,0.2,0.5,0.2,0.5c0.1,0.1,0.1,0.2,0.2,0.2c0,0,0.1,0,0.2,0.1h-0.1h0.1c0.4,0,0.7-0.1,0.9-0.3
		c0.4-0.1,0.7-0.3,1-0.5c0.3-0.2,0.5-0.4,0.8-0.7c0.2-0.2,0.5-0.5,0.8-0.8l1.3-1.6c0.4-0.6,0.7-1.1,1-1.7c0.3-0.5,0.7-1.1,1-1.7
		c0.3-0.4,0.5-0.7,0.6-0.9c0.1-0.3,0.2-0.5,0.4-0.6c0.1-0.1,0.1-0.3,0.2-0.5c0.1-0.2,0.2-0.4,0.3-0.7c0.1-0.3,0.2-0.3,0.1-0.1
		c-0.1,0.3-0.2,0.3-0.2,0.3c0.4-0.8,0.8-1.6,1.2-2.3c0.4-0.7,0.6-1.2,0.7-1.3c-0.2,0.4-0.4,0.6-0.4,0.7c-0.1,0.1-0.2,0.4-0.4,0.9
		c-0.1,0.1-0.1,0.1,0,0c0.1-0.1,0.2-0.3,0.3-0.5c0-0.1,0.1-0.3,0.2-0.5c0.1-0.1,0.1-0.2,0.2-0.3c-0.1,0.3-0.3,0.6-0.5,0.9
		c-0.2,0.3-0.4,0.7-0.6,1.2c0.2-0.4,0.4-0.8,0.5-1c0.1-0.3,0.3-0.5,0.3-0.8c0.1-0.2,0.3-0.5,0.4-0.7c0.1-0.3,0.4-0.6,0.7-1.1
		c0-0.1,0-0.1-0.1,0.1c-0.1,0.1-0.1,0.2-0.2,0.4c0.1-0.1,0.2-0.3,0.3-0.5c0.1-0.2,0.2-0.5,0.4-0.9c-0.1,0.4-0.2,0.5-0.1,0.2
		c0.1-0.3,0.2-0.7,0.4-1c0,0.1,0,0.2-0.1,0.4c-0.1,0.2-0.1,0.4-0.2,0.5v-0.2c0.1-0.3,0.3-0.5,0.3-0.5l0.2-0.7
		c0.1-0.4,0.1-0.3-0.1,0.2c-0.2,0.5-0.3,0.9-0.5,1.2c0.1-0.2,0.2-0.5,0.3-0.9c0.1-0.4,0.3-0.6,0.4-0.8v-0.1c0.4-0.9,0.7-1.7,1-2.5
		l0.3-1h1c-1.9,4.7-3.7,8.7-5.3,11.9c-1.7,3.2-3.2,5.9-4.6,8c-1.4,2.1-2.7,3.8-3.9,5c-1.2,1.2-2.1,2.1-2.9,2.7l-0.2,0.2l-0.9,0.4
		c-0.5,0.3-1,0.4-1.4,0.4s-0.8,0-1.1-0.1c-0.3-0.1-0.7-0.3-1.1-0.5c-0.4-0.4-0.8-0.8-1-1.2c-0.2-0.4-0.4-0.8-0.5-1.2
		c-0.1-0.4-0.3-0.9-0.3-1.4c-0.1-0.9-0.2-1.8-0.2-2.7c0-0.9,0.1-1.8,0.3-2.7c0-0.4,0-0.7,0.1-1.1c0-0.4,0.1-0.7,0.2-1.1
		c-0.1,0.2-0.1,0.6-0.2,1.1c0,0.5-0.1,1.2-0.3,1.9c-0.1,1-0.1,2,0,3c-0.1,0.3-0.1,0.6-0.1,0.8c0,0.3,0.1,0.5,0.1,0.7
		c0,0.3,0,0.5,0.1,0.8c0.1,0.2,0.1,0.4,0.2,0.5c0,0.5,0.2,1,0.7,1.5c0.1,0.4,0.4,0.7,0.7,0.9c0.1,0.1,0.2,0.2,0.1,0.2l0.2,0.2
		c0.3,0.1,0.5,0.2,0.5,0.2c0.4,0.2,0.8,0.3,1.2,0.3c0.4,0,0.8,0,1-0.1c0.3,0,0.6-0.1,0.9-0.2c0.1,0,0.1,0,0.1-0.1c0,0,0-0.1,0.1-0.1
		h0.1c0-0.1,0-0.1,0.1-0.1l0.2-0.1c-0.1,0.1-0.1,0.1-0.2,0.1c0,0-0.1,0-0.2,0.1l-0.1,0.1c-0.1,0-0.1,0-0.2,0.1l-0.2,0.1
		c-0.3,0.1-0.6,0.2-0.9,0.2c-0.2,0.1-0.5,0.1-0.9,0.1h0.8c0.1-0.1,0.3-0.1,0.5-0.2c0.2,0,0.4-0.1,0.5-0.2l0.4-0.2l0.2-0.1
		c0-0.1,0-0.1,0.1-0.1c0.1-0.1,0.3-0.2,0.3-0.2l0.2-0.1c0.1-0.1,0.1-0.1,0.2-0.1c0.1-0.1,0.2-0.2,0.3-0.3c0.1-0.1,0.3-0.2,0.4-0.4
		c0.3-0.2,0.7-0.6,1.2-1.1c0.8-0.8,1.4-1.5,1.8-2.1c0.6-0.7,1.1-1.3,1.6-2c0.5-0.7,1-1.4,1.4-2.1c0.5-0.7,1-1.3,1.4-2
		c0.4-0.7,0.8-1.4,1.1-2.1c0.1,0.1,0,0.2-0.1,0.5c-0.1,0.3-0.3,0.5-0.4,0.7c-0.1,0.2-0.3,0.5-0.4,0.8l-0.2,0.2
		c0.2-0.4,0.5-0.8,0.8-1.2c0.3-0.5,0.6-0.9,0.9-1.4c0.3-0.5,0.5-1,0.7-1.4c0.2-0.4,0.3-0.7,0.5-0.9c-0.2,0.4-0.4,0.7-0.6,1.1
		c-0.2,0.4-0.4,0.8-0.6,1.2c0.1-0.4,0.4-0.9,0.8-1.5c0.4-0.6,0.7-1.2,1.1-1.9c0.3-0.7,0.6-1.4,0.9-2.1c0.3-0.7,0.5-1.2,0.8-1.7
		c-0.6,1.3-1.2,2.7-1.8,4.1c-0.7,1.4-1.4,2.8-2.2,4.3c-0.8,1.4-1.7,2.9-2.7,4.5c-0.5,0.7-1,1.4-1.6,2.2s-1.1,1.4-1.7,2.1
		c-0.4,0.4-0.7,0.7-1,1c-0.3,0.3-0.6,0.6-1,0.9c-0.4,0.4-0.8,0.7-1.1,0.9l-0.1,0.1l-0.1,0.1h-0.1l-0.2,0.2c-0.1,0.1-0.3,0.1-0.3,0.2
		c-0.1,0-0.2,0.1-0.3,0.3h-0.1H161c0,0.1,0,0.1-0.1,0.1c-0.1,0.1-0.2,0.1-0.3,0.1c-0.3,0.1-0.5,0.2-0.7,0.2
		c-0.3,0.1-0.7,0.1-1.3,0.1c-0.2-0.1-0.5-0.1-0.7-0.2c-0.3,0-0.5-0.1-0.7-0.3c-0.1,0-0.3,0-0.3-0.1c0-0.1-0.1-0.1-0.2-0.2l-0.1-0.1
		l-0.1-0.1c-0.1-0.1-0.1-0.1-0.2-0.1c0,0-0.1,0-0.2-0.1c-0.3-0.4-0.5-0.7-0.7-1.1c-0.2-0.4-0.4-0.8-0.6-1.4
		c-0.1-0.1-0.1-0.3-0.1-0.3c0-0.1,0-0.2-0.1-0.3c-0.1-0.1-0.1-0.2-0.1-0.3v-0.2v-0.1v-0.1c-0.1-0.2-0.1-0.4-0.1-0.7
		c0-0.2,0-0.4-0.1-0.7c0.1-0.5,0.1-1,0.1-1.5c0-0.5,0-0.9,0-1.4c0-0.2,0-0.4,0.1-0.7c0-0.2,0.1-0.4,0.1-0.7c0.1-0.3,0.1-0.5,0.1-0.8
		c0-0.2,0-0.4,0.1-0.7c-0.1,0.3-0.2,0.8-0.3,1.5c-0.1,0.4-0.1,0.8-0.2,1.2c0,0.5,0,1,0.1,1.5c-0.1,0.3-0.1,0.6-0.1,0.8
		c0,0.3,0.1,0.5,0.1,0.8c0.1,0.1,0.1,0.3,0.1,0.4c0,0.1,0,0.2,0.1,0.4v0.2v0.1h0.1v0.1v0.4c0.1,0.4,0.3,0.9,0.5,1.6
		c0.1,0.2,0.3,0.5,0.4,0.7c0.1,0.3,0.2,0.5,0.4,0.6c0.1,0.1,0.1,0.3,0.2,0.4c0.1,0.1,0.2,0.2,0.3,0.4c0.1,0,0.1,0,0.1,0.1h0.1h0.1
		c0,0.1,0,0.2,0.1,0.2l0.7,0.3c0.6,0.1,1,0.2,1.4,0.2c0.2,0,0.5,0,0.8,0c0.3,0,0.6-0.1,0.9-0.2c0.1-0.1,0.1-0.1,0.2-0.1
		c0.1,0,0.1,0,0.2-0.1l0.1-0.1h0.1l0.1-0.1h0.1c0.1-0.1,0.3-0.2,0.4-0.3c0.1,0,0.1,0,0.2-0.1h0.1v-0.1h0.1c0.3-0.2,0.5-0.4,0.8-0.6
		c0.2-0.2,0.5-0.4,0.8-0.7c0.6-0.4,1.1-0.9,1.5-1.4c0.4-0.5,0.8-1,1.2-1.6c1.2-1.6,2.4-3.3,3.5-5.2c1.1-1.8,2.2-3.7,3.1-5.6
		c0.9-1.9,1.8-3.7,2.6-5.5c0.8-1.8,1.4-3.4,1.9-4.8c0.2-0.6,0.4-1.1,0.7-1.6c0.2-0.5,0.4-1,0.5-1.5l0.1-0.2h-0.2c-0.4,0-0.8,0-1,0.1
		c0.2-0.1,0.5-0.1,1-0.1h0.2l-0.1,0.2c-0.8,2.2-1.7,4.5-2.6,6.8c-0.9,2.3-2,4.6-3.1,6.9c-0.4,0.6-0.7,1.2-0.9,1.7
		c-0.3,0.6-0.6,1.2-0.9,1.7c-0.4,0.6-0.7,1.1-1,1.6c-0.3,0.5-0.7,1-1,1.6c-0.7,1.1-1.4,2.1-2.2,3.1c-0.8,1-1.6,2-2.4,2.9l0.1-0.1
		l0.4-0.4c-0.2,0.4-0.6,0.8-1.2,1.2c-0.3,0.4-0.7,0.7-1.1,1c0.4-0.2,0.7-0.5,0.9-0.7c0.3-0.3,0.5-0.5,0.8-0.8c0.3-0.4,0.6-0.7,0.8-1
		c0.3-0.3,0.5-0.5,0.7-0.8c-0.1,0.2-0.3,0.5-0.6,0.7c-0.3,0.3-0.5,0.5-0.7,0.8c-0.2,0.3-0.5,0.6-0.8,0.8c-0.3,0.3-0.6,0.5-1,0.8
		l-0.4,0.4c-0.1,0-0.1,0-0.1,0.1c0,0,0,0.1-0.1,0.1v0.1h-0.1c-0.1,0.1-0.1,0.1-0.2,0.1c0,0-0.1,0-0.2,0.1l-0.7,0.3v0.1h-0.1h-0.1
		c0,0.1,0,0.1-0.1,0.1c-0.1,0.1-0.1,0.1-0.2,0.1c-0.1,0-0.2,0-0.3,0.1c-0.2,0.1-0.5,0.1-0.8,0.2c-0.3,0.1-0.6,0.1-0.9,0
		c-0.7,0-1.2-0.1-1.7-0.3c0.1,0.1,0.3,0.1,0.5,0.2c0.2,0.1,0.5,0.1,0.8,0.2c0.3,0,0.6,0,0.8,0c0.3,0,0.6,0,0.9-0.1l1-0.3l0.1-0.1
		h0.1h0.1v-0.1h0.1l0.1-0.1c0.1,0,0.2-0.1,0.3-0.2c0.1,0,0.1,0,0.1-0.1c0,0,0-0.1,0.1-0.1l0.2-0.1c0.1-0.1,0.3-0.2,0.3-0.2
		c0.1-0.1,0.3-0.2,0.3-0.3c0.1,0,0.2-0.1,0.3-0.3c0.1-0.1,0.2-0.1,0.1,0.1c-0.1,0.1-0.2,0.2-0.4,0.4l-0.3,0.3l-0.2,0.1v0.1h-0.1
		l-0.4,0.4c-0.9,0.6-1.7,0.9-2.4,1c-0.7,0.1-1.5,0-2.3-0.2c-0.4-0.1-0.8-0.3-1.1-0.4l-0.2-0.2l-0.2-0.1c-0.1-0.1-0.2-0.3-0.3-0.4
		c-0.2-0.3-0.4-0.6-0.6-0.9c-0.2-0.3-0.4-0.6-0.6-1c-0.1-0.3-0.3-0.6-0.3-0.8c-0.1-0.3-0.1-0.6-0.2-0.9c-0.1-0.1-0.1-0.1-0.1-0.2
		c0-0.1,0-0.1-0.1-0.2v-0.4c0-0.1,0-0.3-0.1-0.5c0-0.2-0.1-0.3-0.1-0.5c-0.1-1.3-0.1-2.6,0-3.9l0.3-2c0-0.4,0-0.7,0.1-1
		c0-0.3,0.1-0.6,0.1-1c0.1-0.7,0.3-1.3,0.4-2s0.2-1.3,0.4-2c0.2-1.3,0.5-2.6,0.7-3.9c0.3-1.3,0.5-2.6,0.7-4c0.2-0.7,0.4-1.3,0.5-2
		c0.1-0.7,0.3-1.3,0.4-2l1-3.9c0.3-1.3,0.6-2.6,1-3.9c0.4-1.3,0.7-2.6,1-3.8c0.1-0.4,0.3-0.7,0.4-1.1c0.1-0.4,0.2-0.7,0.4-1.1
		l1.8-6.2h-0.4c-0.6-0.1-1.2-0.1-1.7-0.1c-0.6,0-1.2,0-1.7-0.1c-0.1,0-0.3,0-0.5-0.1c-0.2,0-0.3-0.1-0.5-0.1c-0.2,0-0.4,0-0.5-0.1
		h-0.5c-0.1-0.1-0.3-0.1-0.5-0.1c-0.2,0-0.3,0-0.5-0.1c-0.2,0-0.5-0.1-1-0.2c-0.3,0-0.4,0-0.4-0.1c-0.1,0-0.3,0-0.3-0.1
		c-0.1,0-0.1-0.1-0.2-0.1c-0.1-0.1-0.2-0.1-0.3-0.1c0,0-0.1,0-0.3-0.1c-0.1,0-0.1,0-0.2-0.1c0,0-0.1-0.1-0.2-0.1l-0.2-0.1
		c-0.4-0.1-0.7-0.3-1-0.7l-0.2-0.1l-0.1-0.1v-0.2l-0.1-0.1v-0.1c-0.1-0.1-0.2-0.3-0.2-0.4v-0.2v-0.2v-0.1c0-0.1,0-0.1,0.1-0.1v-0.1
		v-0.1l0.3-0.7h0.7c0.5,0,0.9,0,1.1,0.1c1.2,0,2.4,0,3.5,0c1.1,0,2.1,0,2.9,0.1c0.5,0,1,0,1.5,0.1c0.5,0,0.9,0.1,1.4,0.1
		c0.5,0,0.9,0,1.1,0.1h-0.1h0.7c0.3-0.9,0.5-1.7,0.5-2.4l1-2.6c0.1-0.3,0.1-0.5,0.2-0.8c0.1-0.2,0.1-0.4,0.2-0.7l0.1-0.3v-0.1v-0.1
		l0.1-0.2c0-0.1,0-0.3,0.1-0.3c0.1-0.1,0.1-0.2,0.2-0.3c0.4-1,0.8-1.9,1.3-2.7c0.4-0.9,1-1.7,1.6-2.6c0.7-0.9,1.6-1.6,2.5-2.1
		c0.2-0.1,0.5-0.3,0.7-0.3c0.3-0.1,0.5-0.2,0.7-0.3c0.4-0.1,0.7-0.1,0.9-0.1c0.3,0,0.5,0,0.7,0c0.5,0,1,0.1,1.4,0.3
		c0.7,0.2,1.1,0.5,1.3,0.9c0.2,0.1,0.4,0.3,0.5,0.5c0.1,0.2,0.3,0.4,0.4,0.7c0.2,0.5,0.4,1,0.5,1.4c0.1,0.4,0.3,0.9,0.3,1.4
		c0.1,0.5,0.1,1,0.2,1.5c0.1,0.4,0.1,0.9,0.1,1.4c0,0.5-0.1,0.9-0.2,1.4c0.1,0.5,0.1,1,0.1,1.4c0,0.4-0.1,0.9-0.2,1.3
		c0,0.2,0,0.4-0.1,0.7c0,0.2-0.1,0.5-0.2,0.8c-0.1,0.1-0.1,0.4-0.1,0.7v0.1v0.1l-0.1,0.1v0.3c-0.1,0.2-0.1,0.4-0.2,0.6
		c0,0.2-0.1,0.4-0.1,0.6l-0.2,0.1c0.8,0,1.6,0,2.4-0.1c0.8,0,1.6-0.1,2.4-0.1c0.9-0.1,1.8-0.1,2.7-0.2c0.9,0,1.8-0.1,2.8-0.1h-0.3
		c0.1-0.1,0.3-0.1,0.5-0.1c0.2,0,0.4,0.1,0.5,0.1c-0.5-0.1-1-0.1-1.5,0c0.3-0.1,0.8-0.1,1.4-0.1h1.1c0.1,0.1,0.3,0.1,0.5,0.1
		c0.2,0,0.4,0,0.7,0.1c-0.3-0.1-0.7-0.2-1.1-0.2c-0.3-0.1-0.7-0.1-1.2-0.1c-0.1-0.1-0.1-0.1,0.1-0.1c0.2,0,0.4,0,0.5-0.1
		c0.4,0.1,0.9,0.1,1.5,0.1c0.1,0.1,0.4,0.1,0.8,0.1c0.1,0.1,0.3,0.1,0.4,0.1s0.2,0.1,0.4,0.2c0.2,0,0.4,0.1,0.7,0.3
		c0.1,0.1,0.1,0.1,0.2,0.2c0,0.1,0.1,0.1,0.3,0.2c0.1,0.1,0.1,0.4,0.1,0.7c0.1,0.1,0.1,0.1,0.1,0.2V96.6z M158.2,95.6
		c0.2-0.1,0.4-0.1,0.7-0.1c0.2,0,0.4,0.1,0.5,0.1c0.3-0.1,0.5-0.1,0.8-0.1c0.2,0,0.5,0.1,0.9,0.1H158.2z M164.3,134
		c-0.1,0.4-0.2,0.9-0.3,1.3c0,0.4-0.1,0.8-0.2,1.2c-0.1,0.7-0.2,1.1-0.1,1.4c-0.1-0.4,0-1,0.2-1.7l0.3-2.3c0.2-0.8,0.4-1.6,0.7-2.3
		c0.2-0.8,0.4-1.5,0.7-2.2c-0.1,0.6-0.3,1.3-0.6,2.1C164.7,132.3,164.5,133.1,164.3,134z M164.6,140.5c-0.1,0-0.3-0.1-0.5-0.3
		C164.3,140.4,164.5,140.5,164.6,140.5c0.4,0,0.9-0.2,1.5-0.5c0.3-0.1,0.5-0.3,0.8-0.6c0.2-0.3,0.5-0.5,0.8-0.7
		c0.9-1.1,1.6-2,2.1-2.7c-0.3,0.4-0.5,0.7-0.8,1c-0.2,0.3-0.4,0.6-0.7,0.9c-0.3,0.3-0.5,0.6-0.8,0.8c-0.2,0.3-0.4,0.5-0.7,0.7
		c-0.1,0.1-0.3,0.3-0.5,0.4c-0.2,0.1-0.4,0.2-0.7,0.4C165.5,140.4,165.1,140.5,164.6,140.5z M177.7,94.7c0.1-0.1,0.2-0.4,0.3-0.9
		c-0.1-0.1-0.1-0.3-0.1-0.3c0-0.1,0.1-0.2,0.1-0.3v-0.1v-0.2c0.1-0.1,0.1-0.1,0.1-0.2c0.1-0.4,0.1-0.7,0.2-1c0-0.3,0.1-0.4,0.1-0.2
		c0,0.1,0,0.3-0.1,0.5c0,0.2-0.1,0.3-0.1,0.5c-0.1,0.1-0.1,0.2-0.1,0.3c0,0,0,0.1-0.1,0.3v0.1v0.1v0.1c0,0.1,0,0.1-0.1,0.2
		c-0.1,0.4-0.1,0.7-0.2,0.9c0,0.3-0.1,0.4-0.1,0.5V94.7z M194,96.8c-0.1-0.1-0.1-0.1-0.1-0.2c0-0.1-0.1-0.3-0.2-0.4
		c0-0.1,0-0.3-0.1-0.3c-0.2-0.2-0.4-0.3-0.7-0.3c-0.3-0.1-0.5-0.2-0.5-0.2c-0.5-0.1-1.1-0.3-1.8-0.3h-2.7c-0.7,0-1.4,0-2.2,0.1
		c-0.7,0-1.4,0.1-2.2,0.1c-0.8,0.1-1.5,0.1-2.1,0.1c-0.6,0-1.2,0-1.8,0h-1l-0.1,0.7c1.9,0,3.7-0.1,5.6-0.2c1.8-0.1,3.5-0.2,4.9-0.2
		s2.5,0.1,3.4,0.3c0.8,0.2,1.2,0.6,1,1.2c-0.1,0.5-0.6,0.9-1.6,1.1h0.2c0.1,0,0.4-0.1,0.8-0.3c0.1-0.1,0.2-0.1,0.3-0.2
		c0.1,0,0.2-0.1,0.3-0.2c0-0.1,0-0.1,0.1-0.2c0,0,0.1-0.1,0.1-0.2V97v-0.1c0.1-0.2,0-0.4-0.1-0.5c-0.1-0.1-0.2-0.2-0.4-0.3
		c0-0.1-0.1-0.3-0.4-0.3c-0.1,0-0.3,0-0.4-0.1c-0.1,0-0.3-0.1-0.4-0.1c-0.4-0.1-0.7-0.1-0.9-0.2c-0.3,0-0.5-0.1-0.6-0.1
		c0.1,0,0.3,0,0.4-0.1c0.1,0,0.4,0,0.7,0.1c-0.1-0.1-0.4-0.1-0.7-0.1c-0.3,0-0.5,0-0.7,0h-1h-1h-3.5h0.9h-1.8h0.9h-2.7
		c0.4,0,0.9,0,1.5-0.1c0.5,0,1.1-0.1,1.7-0.1c0.6-0.1,1.2-0.1,1.8-0.1c0.6,0,1.2,0,1.9-0.1c0.4,0,0.7,0,1,0c0.3,0,0.6,0,1,0.1
		c0.4,0,0.7,0,0.9,0.1c0.3,0,0.6,0.1,0.9,0.2c0.4,0.1,0.8,0.3,1.1,0.3c0.2,0.2,0.3,0.4,0.3,0.4c0.2,0.2,0.3,0.4,0.3,0.7
		c0,0.1,0,0.1-0.1,0.2V97v0.1v0.1c0,0.1,0,0.1-0.1,0.2c-0.1,0.1-0.2,0.3-0.3,0.3c0,0.1-0.1,0.1-0.3,0.2c-0.2,0.2-0.6,0.4-1.1,0.5
		c0.1,0,0.3-0.1,0.8-0.2c0.1-0.1,0.1-0.1,0.2-0.1c0,0,0.1-0.1,0.3-0.2l0.5-0.5v-0.2l0.1-0.1V97v-0.1L194,96.8z"/>
	<path fill="#FFFFFF" d="M214.6,96.6c0,0.1,0,0.1-0.1,0.2V97v0.1v0.1v0.2l-0.3,0.3c-0.1,0.3-0.3,0.5-0.3,0.5
		c-0.2,0.1-0.4,0.3-0.5,0.4c-0.4,0.1-0.7,0.3-0.8,0.3c-0.3,0.1-0.5,0.2-0.8,0.2c-0.4,0.1-0.7,0.1-0.9,0.2c-0.2,0-0.4,0.1-0.7,0.1
		c-0.7,0.1-1.4,0.2-2.1,0.2c-0.7,0-1.4,0-2.1,0h-4c-0.8,0-1.6,0-2.4-0.1c-0.8,0-1.6-0.1-2.4-0.1l-2,5.9c-0.1,0.3-0.3,0.6-0.4,0.9
		c-0.1,0.3-0.2,0.6-0.4,0.9c-0.8,2.2-1.6,4.2-2.4,6.1c-1.7,4.1-3.2,8.1-4.6,12.1l-0.4,1.1l-0.3,1c-0.3,0.7-0.5,1.4-0.8,2.2
		c-0.1,0.7-0.3,1.4-0.5,2.1c-0.2,0.7-0.4,1.3-0.5,2.1c-0.2,0.7-0.4,1.3-0.4,2c-0.1,0.7-0.2,1.3-0.3,1.8c-0.1,0.4-0.1,0.7-0.1,0.9
		c0,0.3,0,0.5,0,0.8c0.1,0.3,0.2,0.5,0.2,0.5c0.1,0.1,0.1,0.2,0.2,0.2c0,0,0.1,0,0.2,0.1h-0.1h0.1c0.4,0,0.7-0.1,0.9-0.3
		c0.4-0.1,0.7-0.3,1-0.5c0.3-0.2,0.5-0.4,0.8-0.7c0.2-0.2,0.5-0.5,0.8-0.8l1.3-1.6c0.4-0.6,0.7-1.1,1-1.7c0.3-0.5,0.7-1.1,1-1.7
		c0.3-0.4,0.5-0.7,0.6-0.9c0.1-0.3,0.2-0.5,0.4-0.6c0.1-0.1,0.1-0.3,0.2-0.5c0.1-0.2,0.2-0.4,0.3-0.7c0.1-0.3,0.2-0.3,0.1-0.1
		c-0.1,0.3-0.2,0.3-0.2,0.3c0.4-0.8,0.8-1.6,1.2-2.3c0.4-0.7,0.6-1.2,0.7-1.3c-0.2,0.4-0.4,0.6-0.4,0.7c-0.1,0.1-0.2,0.4-0.4,0.9
		c-0.1,0.1-0.1,0.1,0,0c0.1-0.1,0.2-0.3,0.3-0.5c0-0.1,0.1-0.3,0.2-0.5c0.1-0.1,0.1-0.2,0.2-0.3c-0.1,0.3-0.3,0.6-0.5,0.9
		c-0.2,0.3-0.4,0.7-0.6,1.2c0.2-0.4,0.4-0.8,0.5-1c0.1-0.3,0.3-0.5,0.3-0.8c0.1-0.2,0.3-0.5,0.4-0.7c0.1-0.3,0.4-0.6,0.7-1.1
		c0-0.1,0-0.1-0.1,0.1c-0.1,0.1-0.1,0.2-0.2,0.4c0.1-0.1,0.2-0.3,0.3-0.5c0.1-0.2,0.2-0.5,0.4-0.9c-0.1,0.4-0.2,0.5-0.1,0.2
		c0.1-0.3,0.2-0.7,0.4-1c0,0.1,0,0.2-0.1,0.4c-0.1,0.2-0.1,0.4-0.2,0.5v-0.2c0.1-0.3,0.3-0.5,0.3-0.5l0.2-0.7
		c0.1-0.4,0.1-0.3-0.1,0.2c-0.2,0.5-0.3,0.9-0.5,1.2c0.1-0.2,0.2-0.5,0.3-0.9c0.1-0.4,0.3-0.6,0.4-0.8v-0.1c0.4-0.9,0.7-1.7,1-2.5
		l0.3-1h1c-1.9,4.7-3.7,8.7-5.3,11.9c-1.7,3.2-3.2,5.9-4.6,8c-1.4,2.1-2.7,3.8-3.9,5c-1.2,1.2-2.1,2.1-2.9,2.7l-0.2,0.2l-0.9,0.4
		c-0.5,0.3-1,0.4-1.4,0.4s-0.8,0-1.1-0.1c-0.3-0.1-0.7-0.3-1.1-0.5c-0.4-0.4-0.8-0.8-1-1.2c-0.2-0.4-0.4-0.8-0.5-1.2
		c-0.1-0.4-0.3-0.9-0.3-1.4c-0.1-0.9-0.2-1.8-0.2-2.7c0-0.9,0.1-1.8,0.3-2.7c0-0.4,0-0.7,0.1-1.1c0-0.4,0.1-0.7,0.2-1.1
		c-0.1,0.2-0.1,0.6-0.2,1.1c0,0.5-0.1,1.2-0.3,1.9c-0.1,1-0.1,2,0,3c-0.1,0.3-0.1,0.6-0.1,0.8c0,0.3,0.1,0.5,0.1,0.7
		c0,0.3,0,0.5,0.1,0.8c0.1,0.2,0.1,0.4,0.2,0.5c0,0.5,0.2,1,0.7,1.5c0.1,0.4,0.4,0.7,0.7,0.9c0.1,0.1,0.2,0.2,0.1,0.2l0.2,0.2
		c0.3,0.1,0.5,0.2,0.5,0.2c0.4,0.2,0.8,0.3,1.2,0.3c0.4,0,0.8,0,1-0.1c0.3,0,0.6-0.1,0.9-0.2c0.1,0,0.1,0,0.1-0.1c0,0,0-0.1,0.1-0.1
		h0.1c0-0.1,0-0.1,0.1-0.1l0.2-0.1c-0.1,0.1-0.1,0.1-0.2,0.1c0,0-0.1,0-0.2,0.1l-0.1,0.1c-0.1,0-0.1,0-0.2,0.1l-0.2,0.1
		c-0.3,0.1-0.6,0.2-0.9,0.2c-0.2,0.1-0.5,0.1-0.9,0.1h0.8c0.1-0.1,0.3-0.1,0.5-0.2c0.2,0,0.4-0.1,0.5-0.2l0.4-0.2l0.2-0.1
		c0-0.1,0-0.1,0.1-0.1c0.1-0.1,0.3-0.2,0.3-0.2l0.2-0.1c0.1-0.1,0.1-0.1,0.2-0.1c0.1-0.1,0.2-0.2,0.3-0.3c0.1-0.1,0.3-0.2,0.4-0.4
		c0.3-0.2,0.7-0.6,1.2-1.1c0.8-0.8,1.4-1.5,1.8-2.1c0.6-0.7,1.1-1.3,1.6-2c0.5-0.7,1-1.4,1.4-2.1c0.5-0.7,1-1.3,1.4-2
		c0.4-0.7,0.8-1.4,1.1-2.1c0.1,0.1,0,0.2-0.1,0.5c-0.1,0.3-0.3,0.5-0.4,0.7c-0.1,0.2-0.3,0.5-0.4,0.8l-0.2,0.2
		c0.2-0.4,0.5-0.8,0.8-1.2c0.3-0.5,0.6-0.9,0.9-1.4c0.3-0.5,0.5-1,0.7-1.4c0.2-0.4,0.3-0.7,0.5-0.9c-0.2,0.4-0.4,0.7-0.6,1.1
		c-0.2,0.4-0.4,0.8-0.6,1.2c0.1-0.4,0.4-0.9,0.8-1.5c0.4-0.6,0.7-1.2,1.1-1.9c0.3-0.7,0.6-1.4,0.9-2.1c0.3-0.7,0.5-1.2,0.8-1.7
		c-0.6,1.3-1.2,2.7-1.8,4.1c-0.7,1.4-1.4,2.8-2.2,4.3c-0.8,1.4-1.7,2.9-2.7,4.5c-0.5,0.7-1,1.4-1.6,2.2s-1.1,1.4-1.7,2.1
		c-0.4,0.4-0.7,0.7-1,1c-0.3,0.3-0.6,0.6-1,0.9c-0.4,0.4-0.8,0.7-1.1,0.9l-0.1,0.1l-0.1,0.1h-0.1l-0.2,0.2c-0.1,0.1-0.3,0.1-0.3,0.2
		c-0.1,0-0.2,0.1-0.3,0.3h-0.1H181c0,0.1,0,0.1-0.1,0.1c-0.1,0.1-0.2,0.1-0.3,0.1c-0.3,0.1-0.5,0.2-0.7,0.2
		c-0.3,0.1-0.7,0.1-1.3,0.1c-0.2-0.1-0.5-0.1-0.7-0.2c-0.3,0-0.5-0.1-0.7-0.3c-0.1,0-0.3,0-0.3-0.1c0-0.1-0.1-0.1-0.2-0.2l-0.1-0.1
		l-0.1-0.1c-0.1-0.1-0.1-0.1-0.2-0.1c0,0-0.1,0-0.2-0.1c-0.3-0.4-0.5-0.7-0.7-1.1c-0.2-0.4-0.4-0.8-0.6-1.4
		c-0.1-0.1-0.1-0.3-0.1-0.3c0-0.1,0-0.2-0.1-0.3c-0.1-0.1-0.1-0.2-0.1-0.3v-0.2v-0.1v-0.1c-0.1-0.2-0.1-0.4-0.1-0.7
		c0-0.2,0-0.4-0.1-0.7c0.1-0.5,0.1-1,0.1-1.5c0-0.5,0-0.9,0-1.4c0-0.2,0-0.4,0.1-0.7c0-0.2,0.1-0.4,0.1-0.7c0.1-0.3,0.1-0.5,0.1-0.8
		c0-0.2,0-0.4,0.1-0.7c-0.1,0.3-0.2,0.8-0.3,1.5c-0.1,0.4-0.1,0.8-0.2,1.2c0,0.5,0,1,0.1,1.5c-0.1,0.3-0.1,0.6-0.1,0.8
		c0,0.3,0.1,0.5,0.1,0.8c0.1,0.1,0.1,0.3,0.1,0.4c0,0.1,0,0.2,0.1,0.4v0.2v0.1h0.1v0.1v0.4c0.1,0.4,0.3,0.9,0.5,1.6
		c0.1,0.2,0.3,0.5,0.4,0.7c0.1,0.3,0.2,0.5,0.4,0.6c0.1,0.1,0.1,0.3,0.2,0.4c0.1,0.1,0.2,0.2,0.3,0.4c0.1,0,0.1,0,0.1,0.1h0.1h0.1
		c0,0.1,0,0.2,0.1,0.2l0.7,0.3c0.6,0.1,1,0.2,1.4,0.2c0.2,0,0.5,0,0.8,0c0.3,0,0.6-0.1,0.9-0.2c0.1-0.1,0.1-0.1,0.2-0.1
		c0.1,0,0.1,0,0.2-0.1l0.1-0.1h0.1l0.1-0.1h0.1c0.1-0.1,0.3-0.2,0.4-0.3c0.1,0,0.1,0,0.2-0.1h0.1v-0.1h0.1c0.3-0.2,0.5-0.4,0.8-0.6
		c0.2-0.2,0.5-0.4,0.8-0.7c0.6-0.4,1.1-0.9,1.5-1.4c0.4-0.5,0.8-1,1.2-1.6c1.2-1.6,2.4-3.3,3.5-5.2c1.1-1.8,2.2-3.7,3.1-5.6
		c0.9-1.9,1.8-3.7,2.6-5.5c0.8-1.8,1.4-3.4,1.9-4.8c0.2-0.6,0.4-1.1,0.7-1.6c0.2-0.5,0.4-1,0.5-1.5l0.1-0.2h-0.2c-0.4,0-0.8,0-1,0.1
		c0.2-0.1,0.5-0.1,1-0.1h0.2l-0.1,0.2c-0.8,2.2-1.7,4.5-2.6,6.8c-0.9,2.3-2,4.6-3.1,6.9c-0.4,0.6-0.7,1.2-0.9,1.7
		c-0.3,0.6-0.6,1.2-0.9,1.7c-0.4,0.6-0.7,1.1-1,1.6c-0.3,0.5-0.7,1-1,1.6c-0.7,1.1-1.4,2.1-2.2,3.1c-0.8,1-1.6,2-2.4,2.9l0.1-0.1
		l0.4-0.4c-0.2,0.4-0.6,0.8-1.2,1.2c-0.3,0.4-0.7,0.7-1.1,1c0.4-0.2,0.7-0.5,0.9-0.7c0.3-0.3,0.5-0.5,0.8-0.8c0.3-0.4,0.6-0.7,0.8-1
		c0.3-0.3,0.5-0.5,0.7-0.8c-0.1,0.2-0.3,0.5-0.6,0.7c-0.3,0.3-0.5,0.5-0.7,0.8c-0.2,0.3-0.5,0.6-0.8,0.8c-0.3,0.3-0.6,0.5-1,0.8
		l-0.4,0.4c-0.1,0-0.1,0-0.1,0.1c0,0,0,0.1-0.1,0.1v0.1h-0.1c-0.1,0.1-0.1,0.1-0.2,0.1c0,0-0.1,0-0.2,0.1l-0.7,0.3v0.1h-0.1h-0.1
		c0,0.1,0,0.1-0.1,0.1c-0.1,0.1-0.1,0.1-0.2,0.1c-0.1,0-0.2,0-0.3,0.1c-0.2,0.1-0.5,0.1-0.8,0.2c-0.3,0.1-0.6,0.1-0.9,0
		c-0.7,0-1.2-0.1-1.7-0.3c0.1,0.1,0.3,0.1,0.5,0.2c0.2,0.1,0.5,0.1,0.8,0.2c0.3,0,0.6,0,0.8,0c0.3,0,0.6,0,0.9-0.1l1-0.3l0.1-0.1
		h0.1h0.1v-0.1h0.1l0.1-0.1c0.1,0,0.2-0.1,0.3-0.2c0.1,0,0.1,0,0.1-0.1c0,0,0-0.1,0.1-0.1l0.2-0.1c0.1-0.1,0.3-0.2,0.3-0.2
		c0.1-0.1,0.3-0.2,0.3-0.3c0.1,0,0.2-0.1,0.3-0.3c0.1-0.1,0.2-0.1,0.1,0.1c-0.1,0.1-0.2,0.2-0.4,0.4l-0.3,0.3l-0.2,0.1v0.1h-0.1
		l-0.4,0.4c-0.9,0.6-1.7,0.9-2.4,1c-0.7,0.1-1.5,0-2.3-0.2c-0.4-0.1-0.8-0.3-1.1-0.4l-0.2-0.2l-0.2-0.1c-0.1-0.1-0.2-0.3-0.3-0.4
		c-0.2-0.3-0.4-0.6-0.6-0.9c-0.2-0.3-0.4-0.6-0.6-1c-0.1-0.3-0.3-0.6-0.3-0.8c-0.1-0.3-0.1-0.6-0.2-0.9c-0.1-0.1-0.1-0.1-0.1-0.2
		c0-0.1,0-0.1-0.1-0.2v-0.4c0-0.1,0-0.3-0.1-0.5c0-0.2-0.1-0.3-0.1-0.5c-0.1-1.3-0.1-2.6,0-3.9l0.3-2c0-0.4,0-0.7,0.1-1
		c0-0.3,0.1-0.6,0.1-1c0.1-0.7,0.3-1.3,0.4-2s0.2-1.3,0.4-2c0.2-1.3,0.5-2.6,0.7-3.9c0.3-1.3,0.5-2.6,0.7-4c0.2-0.7,0.4-1.3,0.5-2
		c0.1-0.7,0.3-1.3,0.4-2l1-3.9c0.3-1.3,0.6-2.6,1-3.9c0.4-1.3,0.7-2.6,1-3.8c0.1-0.4,0.3-0.7,0.4-1.1c0.1-0.4,0.2-0.7,0.4-1.1
		l1.8-6.2h-0.4c-0.6-0.1-1.2-0.1-1.7-0.1c-0.6,0-1.2,0-1.7-0.1c-0.1,0-0.3,0-0.5-0.1c-0.2,0-0.3-0.1-0.5-0.1c-0.2,0-0.4,0-0.5-0.1
		h-0.5c-0.1-0.1-0.3-0.1-0.5-0.1c-0.2,0-0.3,0-0.5-0.1c-0.2,0-0.5-0.1-1-0.2c-0.3,0-0.4,0-0.4-0.1c-0.1,0-0.3,0-0.3-0.1
		c-0.1,0-0.1-0.1-0.2-0.1c-0.1-0.1-0.2-0.1-0.3-0.1c0,0-0.1,0-0.3-0.1c-0.1,0-0.1,0-0.2-0.1c0,0-0.1-0.1-0.2-0.1l-0.2-0.1
		c-0.4-0.1-0.7-0.3-1-0.7l-0.2-0.1l-0.1-0.1v-0.2l-0.1-0.1v-0.1c-0.1-0.1-0.2-0.3-0.2-0.4v-0.2v-0.2v-0.1c0-0.1,0-0.1,0.1-0.1v-0.1
		v-0.1l0.3-0.7h0.7c0.5,0,0.9,0,1.1,0.1c1.2,0,2.4,0,3.5,0c1.1,0,2.1,0,2.9,0.1c0.5,0,1,0,1.5,0.1c0.5,0,0.9,0.1,1.4,0.1
		c0.5,0,0.9,0,1.1,0.1h-0.1h0.7c0.3-0.9,0.5-1.7,0.5-2.4l1-2.6c0.1-0.3,0.1-0.5,0.2-0.8c0.1-0.2,0.1-0.4,0.2-0.7l0.1-0.3v-0.1v-0.1
		l0.1-0.2c0-0.1,0-0.3,0.1-0.3c0.1-0.1,0.1-0.2,0.2-0.3c0.4-1,0.8-1.9,1.3-2.7c0.4-0.9,1-1.7,1.6-2.6c0.7-0.9,1.6-1.6,2.5-2.1
		c0.2-0.1,0.5-0.3,0.7-0.3c0.3-0.1,0.5-0.2,0.7-0.3c0.4-0.1,0.7-0.1,0.9-0.1c0.3,0,0.5,0,0.7,0c0.5,0,1,0.1,1.4,0.3
		c0.7,0.2,1.1,0.5,1.3,0.9c0.2,0.1,0.4,0.3,0.5,0.5c0.1,0.2,0.3,0.4,0.4,0.7c0.2,0.5,0.4,1,0.5,1.4c0.1,0.4,0.3,0.9,0.3,1.4
		c0.1,0.5,0.1,1,0.2,1.5c0.1,0.4,0.1,0.9,0.1,1.4c0,0.5-0.1,0.9-0.2,1.4c0.1,0.5,0.1,1,0.1,1.4c0,0.4-0.1,0.9-0.2,1.3
		c0,0.2,0,0.4-0.1,0.7c0,0.2-0.1,0.5-0.2,0.8c-0.1,0.1-0.1,0.4-0.1,0.7v0.1v0.1l-0.1,0.1v0.3c-0.1,0.2-0.1,0.4-0.2,0.6
		c0,0.2-0.1,0.4-0.1,0.6l-0.2,0.1c0.8,0,1.6,0,2.4-0.1c0.8,0,1.6-0.1,2.4-0.1c0.9-0.1,1.8-0.1,2.7-0.2c0.9,0,1.8-0.1,2.8-0.1h-0.3
		c0.1-0.1,0.3-0.1,0.5-0.1c0.2,0,0.4,0.1,0.5,0.1c-0.5-0.1-1-0.1-1.5,0c0.3-0.1,0.8-0.1,1.4-0.1h1.1c0.1,0.1,0.3,0.1,0.5,0.1
		c0.2,0,0.4,0,0.7,0.1c-0.3-0.1-0.7-0.2-1.1-0.2c-0.3-0.1-0.7-0.1-1.2-0.1c-0.1-0.1-0.1-0.1,0.1-0.1c0.2,0,0.4,0,0.5-0.1
		c0.4,0.1,0.9,0.1,1.5,0.1c0.1,0.1,0.4,0.1,0.8,0.1c0.1,0.1,0.3,0.1,0.4,0.1s0.2,0.1,0.4,0.2c0.2,0,0.4,0.1,0.7,0.3
		c0.1,0.1,0.1,0.1,0.2,0.2c0,0.1,0.1,0.1,0.3,0.2c0.1,0.1,0.1,0.4,0.1,0.7c0.1,0.1,0.1,0.1,0.1,0.2V96.6z M178.2,95.6
		c0.2-0.1,0.4-0.1,0.7-0.1c0.2,0,0.4,0.1,0.5,0.1c0.3-0.1,0.5-0.1,0.8-0.1c0.2,0,0.5,0.1,0.9,0.1H178.2z M184.3,134
		c-0.1,0.4-0.2,0.9-0.3,1.3c0,0.4-0.1,0.8-0.2,1.2c-0.1,0.7-0.2,1.1-0.1,1.4c-0.1-0.4,0-1,0.2-1.7l0.3-2.3c0.2-0.8,0.4-1.6,0.7-2.3
		c0.2-0.8,0.4-1.5,0.7-2.2c-0.1,0.6-0.3,1.3-0.6,2.1C184.7,132.3,184.5,133.1,184.3,134z M184.6,140.5c-0.1,0-0.3-0.1-0.5-0.3
		C184.3,140.4,184.4,140.5,184.6,140.5c0.4,0,0.9-0.2,1.5-0.5c0.3-0.1,0.5-0.3,0.8-0.6c0.2-0.3,0.5-0.5,0.8-0.7
		c0.9-1.1,1.6-2,2.1-2.7c-0.3,0.4-0.5,0.7-0.8,1c-0.2,0.3-0.4,0.6-0.7,0.9c-0.3,0.3-0.5,0.6-0.8,0.8c-0.2,0.3-0.4,0.5-0.7,0.7
		c-0.1,0.1-0.3,0.3-0.5,0.4c-0.2,0.1-0.4,0.2-0.7,0.4C185.5,140.4,185.1,140.5,184.6,140.5z M197.7,94.7c0.1-0.1,0.2-0.4,0.3-0.9
		c-0.1-0.1-0.1-0.3-0.1-0.3c0-0.1,0.1-0.2,0.1-0.3v-0.1v-0.2c0.1-0.1,0.1-0.1,0.1-0.2c0.1-0.4,0.1-0.7,0.2-1c0-0.3,0.1-0.4,0.1-0.2
		c0,0.1,0,0.3-0.1,0.5c0,0.2-0.1,0.3-0.1,0.5c-0.1,0.1-0.1,0.2-0.1,0.3c0,0,0,0.1-0.1,0.3v0.1v0.1v0.1c0,0.1,0,0.1-0.1,0.2
		c-0.1,0.4-0.1,0.7-0.2,0.9c0,0.3-0.1,0.4-0.1,0.5V94.7z M214,96.8c-0.1-0.1-0.1-0.1-0.1-0.2c0-0.1-0.1-0.3-0.2-0.4
		c0-0.1,0-0.3-0.1-0.3c-0.2-0.2-0.4-0.3-0.7-0.3c-0.3-0.1-0.5-0.2-0.5-0.2c-0.5-0.1-1.1-0.3-1.8-0.3h-2.7c-0.7,0-1.4,0-2.2,0.1
		c-0.7,0-1.4,0.1-2.2,0.1c-0.8,0.1-1.5,0.1-2.1,0.1c-0.6,0-1.2,0-1.8,0h-1l-0.1,0.7c1.9,0,3.7-0.1,5.6-0.2c1.8-0.1,3.5-0.2,4.9-0.2
		s2.5,0.1,3.4,0.3c0.8,0.2,1.2,0.6,1,1.2c-0.1,0.5-0.6,0.9-1.6,1.1h0.2c0.1,0,0.4-0.1,0.8-0.3c0.1-0.1,0.2-0.1,0.3-0.2
		c0.1,0,0.2-0.1,0.3-0.2c0-0.1,0-0.1,0.1-0.2c0,0,0.1-0.1,0.1-0.2V97v-0.1c0.1-0.2,0-0.4-0.1-0.5c-0.1-0.1-0.2-0.2-0.4-0.3
		c0-0.1-0.1-0.3-0.4-0.3c-0.1,0-0.3,0-0.4-0.1c-0.1,0-0.3-0.1-0.4-0.1c-0.4-0.1-0.7-0.1-0.9-0.2c-0.3,0-0.5-0.1-0.6-0.1
		c0.1,0,0.3,0,0.4-0.1c0.1,0,0.4,0,0.7,0.1c-0.1-0.1-0.4-0.1-0.7-0.1c-0.3,0-0.5,0-0.7,0h-1h-1h-3.5h0.9h-1.8h0.9h-2.7
		c0.4,0,0.9,0,1.5-0.1c0.5,0,1.1-0.1,1.7-0.1c0.6-0.1,1.2-0.1,1.8-0.1c0.6,0,1.2,0,1.9-0.1c0.4,0,0.7,0,1,0c0.3,0,0.6,0,1,0.1
		c0.4,0,0.7,0,0.9,0.1c0.3,0,0.6,0.1,0.9,0.2c0.4,0.1,0.8,0.3,1.1,0.3c0.2,0.2,0.3,0.4,0.3,0.4c0.2,0.2,0.3,0.4,0.3,0.7
		c0,0.1,0,0.1-0.1,0.2V97v0.1v0.1c0,0.1,0,0.1-0.1,0.2c-0.1,0.1-0.2,0.3-0.3,0.3c0,0.1-0.1,0.1-0.3,0.2c-0.2,0.2-0.6,0.4-1.1,0.5
		c0.1,0,0.3-0.1,0.8-0.2c0.1-0.1,0.1-0.1,0.2-0.1c0,0,0.1-0.1,0.3-0.2l0.5-0.5v-0.2l0.1-0.1V97v-0.1L214,96.8z"/>
	<path fill="#FFFFFF" d="M216.8,146.7c0.7-2.1,1.3-4.3,2-6.5c0.7-2.2,1.2-4.5,1.7-6.6h0.1l0.1-0.1c-0.7,2.9-1.4,5.7-2.3,8.5
		c-0.9,2.8-1.8,5.5-2.7,8.2c-0.1,0.4-0.1,0.3,0-0.1c0.1-0.4,0.3-0.7,0.3-0.7c-0.1,0.1-0.2,0.4-0.3,0.7c-0.1,0.3-0.2,0.6-0.4,1
		c-0.1,0.4-0.3,0.7-0.4,1c-0.1,0.3-0.2,0.6-0.3,0.8c0.4-0.9,0.7-1.8,1-2.7c0.3-0.9,0.6-1.8,0.9-2.6c-0.2,0.7-0.5,1.5-0.7,2.3
		c-0.3,0.8-0.6,1.7-1,2.7c-0.4,0.9-0.8,2-1.2,3.1c-0.5,1.1-1,2.4-1.5,3.7c0.1-0.4,0.3-0.8,0.6-1.4c0.3-0.5,0.6-1.1,0.9-1.8
		c0.3-0.7,0.6-1.4,0.8-2.1c0.3-0.7,0.5-1.3,0.7-1.8c0.1-0.1,0.1-0.1,0.1,0c0,0.1-0.1,0.4-0.2,0.7c-0.3,0.7-0.4,1.2-0.4,1.5
		c-0.4,0.9-0.7,1.7-1,2.4c-0.3,0.8-0.6,1.5-0.9,2.2l-2,4.2c-0.3,0.6-0.6,1.2-0.9,1.7c-0.3,0.6-0.6,1.2-1,1.8c-0.3,0.6-0.6,1.2-1,1.8
		c-0.4,0.7-0.8,1.3-1.1,2.1c-0.4,0.7-0.9,1.3-1.5,1.8c-0.1,0.4-0.4,0.7-0.8,1c-0.1,0.1-0.3,0.3-0.4,0.5c-0.1,0.2-0.3,0.3-0.4,0.5
		c-0.4,0.4-0.8,0.7-1.2,0.9c-0.4,0.3-0.9,0.5-1.5,0.6c-0.4,0.2-0.8,0.3-1.4,0.3c-0.4,0.1-0.9,0.1-1.4,0h-0.3h-0.1h-0.2
		c-0.1,0-0.1,0-0.1-0.1c0,0,0-0.1-0.1-0.1c-0.1-0.1-0.3-0.2-0.4-0.2s-0.2,0-0.4-0.1c-0.1,0-0.1,0-0.2-0.1c0,0-0.1-0.1-0.3-0.1H196
		c-0.1-0.1-0.3-0.3-0.5-0.3c-0.2-0.1-0.3-0.2-0.5-0.4c-0.4-0.1-0.6-0.3-0.8-0.5c-0.2-0.2-0.3-0.5-0.5-0.8c-0.3-0.1-0.5-0.4-0.5-0.7
		c-0.6-1-0.9-2.2-0.9-3.5c0-1.3,0.2-2.8,0.6-4.2c0.4-1.5,0.9-3,1.6-4.6c0.7-1.6,1.4-3.1,2.2-4.5c1.9-3.5,4.2-7,6.8-10.6
		c-2,2.3-3.6,3.8-4.9,4.5c-1.3,0.7-2.3,0.9-3.1,0.7c-0.8-0.2-1.3-0.6-1.6-1.2c-0.3-0.6-0.5-1-0.5-1.1c-0.4-1.2-0.6-2.6-0.6-4.2
		c0-1.6,0.2-3.1,0.4-4.6c0.3-1.7,0.6-3.5,1-5.2c1-5.6,2-10,3-13.4c1-3.4,1.9-6,2.7-7.8c0.8-1.8,1.6-3.1,2.2-3.7
		c0.7-0.6,1.2-1,1.5-1.1h0.5c1.3,0,2.2,0.6,2.8,1.7c0.6,1.1,0.9,2.6,0.9,4.3s-0.2,3.7-0.5,5.9c-0.4,2.2-0.8,4.3-1.4,6.5
		c-0.5,2.2-1.1,4.2-1.7,6.1c-0.6,1.9-1,3.4-1.4,4.6c-0.6,1.7-0.8,2.8-0.8,3.5c0.1,0.7,0.3,1.1,0.6,1.2c0.3,0.1,0.7,0.1,1.1-0.1
		c0.4-0.2,0.6-0.3,0.7-0.3c0.3-0.2,0.7-0.5,1.1-1c0.2-0.2,0.5-0.5,0.7-0.7c0.3-0.3,0.5-0.6,0.6-0.9c0.9-3.3,1.7-6.1,2.4-8.5
		c0.7-2.4,1.6-5,2.5-7.8c0.9-2.8,2-5.4,3-7.8s2.2-4.4,3.3-6c1.1-1.6,2.2-2.4,3.3-2.4c1.6,0,2.6,0.7,3,2.2c0.4,1.5,0.5,3.4,0.3,5.6
		c-0.3,2.3-0.8,4.8-1.6,7.6c-0.8,2.8-1.6,5.5-2.3,8.1c1.4-0.9,2.4-1.3,2.7-1.4c-0.4,0.1-0.7,0.3-0.9,0.3c-0.2,0.1-0.5,0.3-1,0.7
		c-0.1,0.1-0.2,0.1-0.1,0c0.1-0.1,0.3-0.2,0.7-0.3c0.2-0.2,0.4-0.4,0.5-0.4c0.1-0.1,0.3-0.1,0.3-0.1l-2.2,1.3
		c0.4-0.3,0.8-0.5,1.1-0.7c0.3-0.1,0.6-0.3,0.9-0.4c0.4-0.1,0.7-0.3,0.9-0.5c0.3-0.2,0.6-0.4,1.1-0.6c0.1-0.1,0.1-0.2-0.1-0.1
		c-0.2,0.1-0.3,0.2-0.5,0.3l1.5-0.8c-0.4,0.1-0.3,0.1,0.1,0c0.4-0.1,0.8-0.3,1.1-0.5l-0.4,0.2c-0.1,0.1-0.3,0.1-0.4,0.2
		c-0.1,0-0.2,0.1-0.4,0.2h0.1l0.2-0.1c0.2-0.2,0.4-0.3,0.4-0.3c0.1,0,0.2,0,0.3-0.1c0,0,0.1-0.1,0.2-0.1c0.1,0,0.1,0,0.2-0.1
		l0.2-0.1h0.1c0.4-0.2,0.3-0.2-0.3,0.1c-0.6,0.3-1.1,0.5-1.5,0.7c0.3-0.1,0.6-0.3,1-0.5c0.4-0.2,0.7-0.3,0.9-0.4
		c0.7-0.4,1.4-0.8,2.1-1c0.7-0.3,1.3-0.6,1.8-0.9h2.6c-2.8,1.2-5.3,2.4-7.8,3.8c-2.4,1.4-4.6,2.8-6.6,4.2c-0.9,3.8-2.1,7.6-3.5,11.6
		c-1.4,3.9-2.8,7.7-4.3,11.3c-1.5,3.6-3.1,6.8-4.7,9.7c-1.6,2.9-3,5.1-4.3,6.7c-0.1,0.1-0.3,0.3-0.4,0.3c0.3-0.1,0.5-0.3,0.8-0.5
		c0.1-0.2,0.4-0.5,0.7-1c0.3-0.4,0.6-0.9,1-1.3c0.3-0.5,0.6-1,1-1.6c0.4-0.5,0.7-1.1,1-1.7c0.6-1,1.1-2.1,1.6-3.1
		c0.3-0.4,0.6-1,1-1.8c0.4-0.9,0.8-1.8,1.2-2.8c0.6-1,1-1.9,1.4-2.8c0.4-0.8,0.6-1.5,0.8-2c-0.1,0.4-0.3,0.8-0.4,1.4
		c-0.1,0.5-0.4,1.2-0.8,2.1c0.1-0.4,0.3-0.7,0.4-1.1c0.1-0.4,0.3-0.7,0.4-1.1c0.3-0.9,0.6-1.6,0.9-2.1c0.1-0.3,0.3-0.7,0.5-1.2
		c0.2-0.5,0.4-1.1,0.7-1.8c0.3-0.7,0.5-1.3,0.7-1.9c0.2-0.6,0.3-1.1,0.5-1.5c0.8-2,1.5-3.9,2-5.8c0.5-1.9,1.1-3.8,1.6-5.6
		c0,0.1-0.1,0.3-0.2,0.6c-0.1,0.3-0.2,0.7-0.2,1c-0.1,0.3-0.2,0.6-0.2,0.9c-0.1,0.3-0.2,0.4-0.2,0.3v0.1c0.2-0.7,0.4-1.4,0.7-2.3
		c0.2-0.9,0.4-1.7,0.7-2.5v-0.1v0.1c-0.1,0.2-0.1,0.4-0.1,0.6c0,0.2,0,0.4-0.1,0.6c0-0.1,0-0.3,0.1-0.5c0-0.2,0.1-0.4,0.2-0.7h0.1
		l-0.1,0.1c-1.4,6.2-3.5,12.7-6.1,19.4c-0.7,1.7-1.3,3.4-2.1,5.1c-0.7,1.7-1.4,3.3-2.2,4.9c-0.6,0.9-1,1.7-1.4,2.4
		c-0.4,0.8-0.8,1.5-1.3,2.3c-0.4,0.8-0.8,1.6-1.4,2.3c-0.5,0.8-1.1,1.5-1.6,2.1c0.1-0.1,0.3-0.3,0.5-0.5c0.2-0.2,0.4-0.5,0.7-0.9
		c0.2-0.4,0.5-0.9,0.8-1.3c0.3-0.4,0.6-0.9,0.8-1.4c0.7-1,1.3-2.1,2-3.4c0.7-1.2,1.2-2.4,1.6-3.5c0.6-1.2,1.5-3.1,2.7-5.8
		c0.5-1.3,1-2.7,1.6-4.3C215.7,149.6,216.3,148.1,216.8,146.7z M201.6,164.3c0.7-0.1,1.3-1,2.1-2.8c0.7-1.8,1.4-3.9,2.2-6.2
		c-0.1,0.1-0.3,0.4-0.4,0.8c-0.1,0.4-0.2,0.7-0.2,1.1l-0.2,0.8c-0.1,0.2-0.2,0.4-0.3,0.5s-0.2,0.2-0.3,0.3c0-0.1,0-0.4,0.1-0.7
		c-0.1,0.4-0.2,0.7-0.2,0.8c0,0.1,0,0.3-0.1,0.5c-0.1,0.2-0.1,0.4-0.1,0.5c-0.3,0.6-0.5,1.2-0.7,1.7l0.1-0.3c0,0.1,0,0.1-0.1,0.2
		c0,0.1-0.1,0.2-0.1,0.3l-0.2,0.2l-0.1,0.1c0-0.1,0-0.1,0.1-0.2c0,0,0.1-0.1,0.1-0.2l-0.2,0.7c-0.1,0.1-0.2,0.3-0.3,0.3
		c0,0.1-0.1,0.1-0.2,0.2c0.6-0.9,1-2.1,1.2-3.6c0.3-0.8,0.5-1.5,0.5-2.1c0.1-0.4,0.2-0.7,0.3-1c0.1-0.3,0.3-0.7,0.3-1
		c-0.2,0.1-0.4,0.4-0.4,0.8c-0.1,0.4-0.1,0.8-0.2,1.1c-0.1,0.2-0.3,0.6-0.3,1c-0.1,0.5-0.2,1-0.3,1.5c-0.1,0.4-0.1,0.8-0.2,1.2
		c-0.1,0.4-0.2,0.8-0.4,1.2c-0.1,0.4-0.3,0.7-0.5,1c-0.2,0.3-0.3,0.6-0.5,0.8c-0.1,0-0.2,0-0.3,0.1c0,0-0.1,0.1-0.2,0.1
		c-0.1,0.1-0.1,0.1-0.2,0.1c0.1,0,0.3-0.1,0.4-0.2c0.1-0.1,0.3-0.3,0.4-0.5c0.2-0.3,0.5-0.7,0.8-1.3c0.2-0.5,0.4-1,0.4-1.5
		c0.1-0.5,0.2-1,0.3-1.4h-0.1v0.1c0-0.1,0-0.2,0.1-0.3c0-0.1,0.1-0.3,0.1-0.3c-0.1,0.1-0.1,0.3-0.1,0.4c0,0.1,0,0.3-0.1,0.4
		c0.1-0.2,0.1-0.5,0.2-0.8c0-0.3,0.1-0.7,0.3-1.1c-0.1,0.1-0.2,0.3-0.3,0.5c0,0.2-0.1,0.4-0.2,0.5v-0.3v-1.6c0-0.2,0-0.4,0.1-0.7
		c0-0.2,0.1-0.5,0.1-0.8l0.1-0.2v-0.2l2.4-4.6c0.3-0.5,0.6-0.9,0.9-1.3c0.1-0.3,0.3-0.5,0.4-0.8c0.1-0.4,0.2-0.7,0.3-1
		c0-0.3,0.1-0.6,0.2-0.9c-0.5,0.4-1.2,1.1-2.1,2.3c-0.9,1.2-2.1,3.2-3.5,6c-0.8,1.5-1.3,2.8-1.6,4c-0.3,1.1-0.4,2.1-0.4,2.8
		c0,0.8,0.1,1.4,0.4,1.8C201.1,163.7,201.3,164.1,201.6,164.3z"/>
</g>
<g>
	<path fill="#FFFFFF" d="M72.4,209.7v-12.8h6.2v1h-5.2v4.8h5v1h-5v6.1H72.4z"/>
	<path fill="#FFFFFF" d="M80.7,209.7v-12.8h1.1v11.8h4.8v1H80.7z"/>
	<path fill="#FFFFFF" d="M95.2,209.7l-0.9-3.2h-4.8l-0.9,3.2h-1.2l3.9-12.8h1.3l3.9,12.8H95.2z M91.9,198.2l-2.2,7.4H94L91.9,198.2z
		"/>
	<path fill="#FFFFFF" d="M99.3,209.7v-11.8h-3.1v-1h7.3v1h-3.1v11.8H99.3z"/>
	<path fill="#FFFFFF" d="M116.2,209.7l-0.7-2.5h-4.2l-0.7,2.5h-2.3l3.8-12.8h2.5l3.8,12.8H116.2z M113.4,199.2l-1.7,6.1h3.4
		L113.4,199.2z"/>
	<path fill="#FFFFFF" d="M119.7,209.7v-12.8h3.8c3.5,0,5.4,2.7,5.4,6.4c0,3.7-1.9,6.4-5.4,6.4H119.7z M126.8,203.3
		c0-2.7-1.1-4.5-3.2-4.5h-1.7v9.1h1.7C125.7,207.8,126.8,206,126.8,203.3z"/>
	<path fill="#FFFFFF" d="M140.1,209.7v-9.4l-3.1,9.4h-0.8l-3.1-9.4v9.4h-2.1v-12.8h2.9l2.8,8.3l2.8-8.3h2.8v12.8H140.1z"/>
	<path fill="#FFFFFF" d="M144.6,209.7v-12.8h2.1v12.8H144.6z"/>
	<path fill="#FFFFFF" d="M156.1,209.7l-4.8-8.6v8.6h-2.1v-12.8h2.1l4.7,8.4v-8.4h2.1v12.8H156.1z"/>
	<path fill="#FFFFFF" d="M167,209.7v-11.8h-3.1v-1h7.3v1h-3.1v11.8H167z"/>
	<path fill="#FFFFFF" d="M179.9,209.7v-6.1h-5.7v6.1h-1.1v-12.8h1.1v5.7h5.7v-5.7h1.1v12.8H179.9z"/>
	<path fill="#FFFFFF" d="M183.9,209.7v-12.8h6.2v1h-5.2v4.8h5v1h-5v5.1h5.2v1H183.9z"/>
	<path fill="#FFFFFF" d="M201.3,209.7v-11.1l-3.6,11.1h-0.4l-3.6-11.1v11.1h-1.1v-12.8h1.6l3.4,10.2l3.4-10.2h1.6v12.8H201.3z"/>
	<path fill="#FFFFFF" d="M205.2,209.7v-12.8h6.2v1h-5.2v4.8h5v1h-5v5.1h5.2v1H205.2z"/>
</g>
</svg>
